<svg width="125" height="124" viewBox="0 0 125 124" fill="none" xmlns="http://www.w3.org/2000/svg">
<path d="M3.98728 70.419C1.75441 65.0284 1.75441 58.9716 3.98728 53.581L15.1721 26.5784C17.405 21.1878 21.6878 16.905 27.0784 14.6721L54.081 3.48727C59.4716 1.25441 65.5284 1.25441 70.919 3.48727L97.9216 14.6721C103.312 16.905 107.595 21.1878 109.828 26.5784L121.013 53.581C123.246 58.9716 123.246 65.0284 121.013 70.419L109.828 97.4216C107.595 102.812 103.312 107.095 97.9216 109.328L70.919 120.513C65.5284 122.746 59.4716 122.746 54.081 120.513L27.0784 109.328C21.6878 107.095 17.405 102.812 15.1721 97.4216L3.98728 70.419Z" fill="white"/>
<path d="M62.5 40.875C64.5711 40.875 66.25 39.1961 66.25 37.125C66.25 35.0539 64.5711 33.375 62.5 33.375C60.4289 33.375 58.75 35.0539 58.75 37.125C58.75 39.1961 60.4289 40.875 62.5 40.875Z" stroke="#20B486" stroke-width="1.5" stroke-linecap="round" stroke-linejoin="round"/>
<path d="M68.875 34.875C69.7485 34.8735 70.6103 35.0762 71.3916 35.4669C72.1729 35.8575 72.8521 36.4253 73.375 37.125" stroke="#20B486" stroke-width="1.5" stroke-linecap="round" stroke-linejoin="round"/>
<path d="M51.625 37.125C52.1479 36.4253 52.8271 35.8575 53.6084 35.4669C54.3897 35.0762 55.2515 34.8735 56.125 34.875" stroke="#20B486" stroke-width="1.5" stroke-linecap="round" stroke-linejoin="round"/>
<path d="M57.1 44.25C57.5939 43.2386 58.3619 42.3861 59.3166 41.7899C60.2714 41.1936 61.3744 40.8774 62.5 40.8774C63.6256 40.8774 64.7286 41.1936 65.6833 41.7899C66.638 42.3861 67.4061 43.2386 67.9 44.25" stroke="#20B486" stroke-width="1.5" stroke-linecap="round" stroke-linejoin="round"/>
<path d="M56.125 34.875C55.5556 34.8756 54.9978 34.7141 54.5168 34.4094C54.0357 34.1048 53.6513 33.6695 53.4085 33.1545C53.1656 32.6395 53.0744 32.066 53.1454 31.501C53.2163 30.9361 53.4466 30.403 53.8093 29.964C54.172 29.5251 54.6521 29.1985 55.1936 29.0223C55.735 28.8461 56.3155 28.8276 56.867 28.969C57.4186 29.1104 57.9185 29.4059 58.3084 29.8208C58.6983 30.2358 58.962 30.7532 59.0687 31.3125" stroke="#20B486" stroke-width="1.5" stroke-linecap="round" stroke-linejoin="round"/>
<path d="M65.9313 31.3125C66.038 30.7532 66.3018 30.2358 66.6916 29.8208C67.0815 29.4059 67.5814 29.1104 68.133 28.969C68.6846 28.8276 69.265 28.8461 69.8064 29.0223C70.3479 29.1985 70.828 29.5251 71.1907 29.964C71.5534 30.403 71.7837 30.9361 71.8547 31.501C71.9256 32.066 71.8344 32.6395 71.5915 33.1545C71.3487 33.6695 70.9643 34.1048 70.4833 34.4094C70.0022 34.7141 69.4444 34.8756 68.875 34.875" stroke="#20B486" stroke-width="1.5" stroke-linecap="round" stroke-linejoin="round"/>
<path d="M49.68 66.2H45.8V70.32H43.79V66.2H39.93V64.37H43.79V60.27H45.8V64.37H49.68V66.2ZM61.5216 57.54V58.61C61.5216 58.93 61.4882 59.19 61.4216 59.39C61.3549 59.5833 61.2882 59.7467 61.2216 59.88L55.7416 71.16C55.6282 71.3933 55.4682 71.5933 55.2616 71.76C55.0549 71.92 54.7782 72 54.4316 72H52.6416L58.2316 60.95C58.3582 60.7233 58.4816 60.5167 58.6016 60.33C58.7282 60.1367 58.8682 59.9533 59.0216 59.78H52.1016C51.9482 59.78 51.8149 59.7233 51.7016 59.61C51.5882 59.4967 51.5316 59.3633 51.5316 59.21V57.54H61.5216ZM73.3031 64.77C73.3031 66.03 73.1665 67.1267 72.8931 68.06C72.6265 68.9867 72.2531 69.7533 71.7731 70.36C71.2998 70.9667 70.7365 71.42 70.0831 71.72C69.4365 72.0133 68.7365 72.16 67.9831 72.16C67.2298 72.16 66.5298 72.0133 65.8831 71.72C65.2431 71.42 64.6865 70.9667 64.2131 70.36C63.7398 69.7533 63.3698 68.9867 63.1031 68.06C62.8365 67.1267 62.7031 66.03 62.7031 64.77C62.7031 63.5033 62.8365 62.4067 63.1031 61.48C63.3698 60.5533 63.7398 59.7867 64.2131 59.18C64.6865 58.5733 65.2431 58.1233 65.8831 57.83C66.5298 57.53 67.2298 57.38 67.9831 57.38C68.7365 57.38 69.4365 57.53 70.0831 57.83C70.7365 58.1233 71.2998 58.5733 71.7731 59.18C72.2531 59.7867 72.6265 60.5533 72.8931 61.48C73.1665 62.4067 73.3031 63.5033 73.3031 64.77ZM70.7531 64.77C70.7531 63.7233 70.6765 62.8567 70.5231 62.17C70.3698 61.4833 70.1631 60.9367 69.9031 60.53C69.6498 60.1233 69.3565 59.84 69.0231 59.68C68.6898 59.5133 68.3431 59.43 67.9831 59.43C67.6298 59.43 67.2865 59.5133 66.9531 59.68C66.6265 59.84 66.3365 60.1233 66.0831 60.53C65.8298 60.9367 65.6265 61.4833 65.4731 62.17C65.3265 62.8567 65.2531 63.7233 65.2531 64.77C65.2531 65.8167 65.3265 66.6833 65.4731 67.37C65.6265 68.0567 65.8298 68.6033 66.0831 69.01C66.3365 69.4167 66.6265 69.7033 66.9531 69.87C67.2865 70.03 67.6298 70.11 67.9831 70.11C68.3431 70.11 68.6898 70.03 69.0231 69.87C69.3565 69.7033 69.6498 69.4167 69.9031 69.01C70.1631 68.6033 70.3698 68.0567 70.5231 67.37C70.6765 66.6833 70.7531 65.8167 70.7531 64.77ZM84.9047 64.77C84.9047 66.03 84.768 67.1267 84.4947 68.06C84.228 68.9867 83.8547 69.7533 83.3747 70.36C82.9014 70.9667 82.338 71.42 81.6847 71.72C81.038 72.0133 80.338 72.16 79.5847 72.16C78.8314 72.16 78.1314 72.0133 77.4847 71.72C76.8447 71.42 76.288 70.9667 75.8147 70.36C75.3414 69.7533 74.9714 68.9867 74.7047 68.06C74.438 67.1267 74.3047 66.03 74.3047 64.77C74.3047 63.5033 74.438 62.4067 74.7047 61.48C74.9714 60.5533 75.3414 59.7867 75.8147 59.18C76.288 58.5733 76.8447 58.1233 77.4847 57.83C78.1314 57.53 78.8314 57.38 79.5847 57.38C80.338 57.38 81.038 57.53 81.6847 57.83C82.338 58.1233 82.9014 58.5733 83.3747 59.18C83.8547 59.7867 84.228 60.5533 84.4947 61.48C84.768 62.4067 84.9047 63.5033 84.9047 64.77ZM82.3547 64.77C82.3547 63.7233 82.278 62.8567 82.1247 62.17C81.9714 61.4833 81.7647 60.9367 81.5047 60.53C81.2514 60.1233 80.958 59.84 80.6247 59.68C80.2914 59.5133 79.9447 59.43 79.5847 59.43C79.2314 59.43 78.888 59.5133 78.5547 59.68C78.228 59.84 77.938 60.1233 77.6847 60.53C77.4314 60.9367 77.228 61.4833 77.0747 62.17C76.928 62.8567 76.8547 63.7233 76.8547 64.77C76.8547 65.8167 76.928 66.6833 77.0747 67.37C77.228 68.0567 77.4314 68.6033 77.6847 69.01C77.938 69.4167 78.228 69.7033 78.5547 69.87C78.888 70.03 79.2314 70.11 79.5847 70.11C79.9447 70.11 80.2914 70.03 80.6247 69.87C80.958 69.7033 81.2514 69.4167 81.5047 69.01C81.7647 68.6033 81.9714 68.0567 82.1247 67.37C82.278 66.6833 82.3547 65.8167 82.3547 64.77Z" fill="#20B486"/>
</svg>
