<svg aria-hidden="true" style="position: absolute; width: 0; height: 0; overflow: hidden;" version="1.1" xmlns="http://www.w3.org/2000/svg" xmlns:xlink="http://www.w3.org/1999/xlink">
<defs>
<symbol id="icon-facebook-logo-button" viewBox="0 0 32 32">
<path fill="#20b486" style="fill: var(--color1, #20b486)" d="M21.978 15.924h-4.136c0 6.572 0 14.661 0 14.661h-6.129c0 0 0-8.011 0-14.661h-2.913v-5.182h2.913v-3.352c0-2.4 1.147-6.151 6.185-6.151l4.541 0.017v5.030c0 0-2.76 0-3.296 0s-1.299 0.267-1.299 1.412v3.045h4.669l-0.536 5.181z"></path>
</symbol>
<symbol id="icon-twitter" viewBox="0 0 32 32">
<path fill="#20b486" style="fill: var(--color1, #20b486)" d="M28.453 9.686l0.019 0.811c0 8.277-6.331 17.813-17.91 17.813-3.554 0-6.862-1.036-9.649-2.813 0.492 0.057 0.994 0.089 1.502 0.089 2.95 0 5.663-1.001 7.817-2.68-2.755-0.051-5.078-1.863-5.881-4.348 0.387 0.073 0.777 0.108 1.186 0.108 0.575 0 1.131-0.073 1.659-0.216-2.88-0.579-5.050-3.105-5.050-6.138v-0.079c0.85 0.47 1.819 0.75 2.851 0.785-1.688-1.122-2.8-3.039-2.8-5.21 0-1.147 0.31-2.222 0.85-3.147 3.103 3.789 7.744 6.281 12.976 6.542-0.109-0.458-0.163-0.938-0.163-1.427 0-3.455 2.819-6.259 6.296-6.259 1.809 0 3.445 0.76 4.596 1.977 1.432-0.283 2.781-0.804 3.998-1.519-0.47 1.462-1.467 2.689-2.768 3.465 1.269-0.149 2.487-0.49 3.615-0.985-0.844 1.252-1.914 2.355-3.145 3.233z"></path>
</symbol>
<symbol id="icon-vimeo" viewBox="0 0 32 32">
<path fill="#20b486" style="fill: var(--color1, #20b486)" d="M10.096 0.853c1.625-0.073 2.145-0.091 6.283-0.091s4.658 0.018 6.283 0.091c2.476 0.112 4.651 0.716 6.397 2.453s2.353 3.9 2.466 6.363c0.074 1.617 0.091 2.133 0.091 6.249s-0.018 4.632-0.091 6.249c-0.113 2.463-0.72 4.626-2.466 6.363s-3.921 2.34-6.397 2.453c-1.625 0.073-2.145 0.091-6.283 0.091s-4.658-0.018-6.283-0.091c-2.476-0.112-4.651-0.716-6.397-2.453s-2.353-3.9-2.466-6.363c-0.074-1.616-0.091-2.133-0.091-6.249s0.018-4.632 0.091-6.249c0.113-2.463 0.72-4.626 2.466-6.363s3.921-2.34 6.397-2.453zM22.535 3.581c-1.606-0.073-2.089-0.088-6.157-0.088s-4.551 0.015-6.157 0.088c-1.735 0.078-3.344 0.424-4.582 1.656s-1.586 2.831-1.665 4.557c-0.074 1.598-0.089 2.078-0.089 6.124s0.015 4.526 0.089 6.124c0.079 1.725 0.427 3.325 1.665 4.557s2.847 1.577 4.582 1.656c1.606 0.073 2.089 0.088 6.157 0.088s4.551-0.015 6.157-0.088c1.735-0.078 3.344-0.424 4.582-1.656s1.586-2.831 1.665-4.557c0.074-1.598 0.089-2.077 0.089-6.124s-0.015-4.526-0.089-6.124c-0.079-1.725-0.427-3.325-1.665-4.557s-2.847-1.577-4.582-1.656zM8.552 15.916c0-4.298 3.503-7.782 7.825-7.782s7.825 3.484 7.825 7.782c0 4.298-3.503 7.782-7.825 7.782s-7.825-3.484-7.825-7.782zM11.296 15.916c0 2.79 2.274 5.052 5.079 5.052s5.079-2.262 5.079-5.052c0-2.79-2.274-5.052-5.079-5.052s-5.079 2.262-5.079 5.052zM26.34 7.828c0 1.004-0.819 1.819-1.829 1.819s-1.829-0.814-1.829-1.819c0-1.004 0.819-1.819 1.829-1.819s1.829 0.814 1.829 1.819z"></path>
</symbol>
<symbol id="icon-Combined-Shape" viewBox="0 0 32 32">
<path fill="#20b486" style="fill: var(--color1, #20b486)" d="M29.885 28.491c0.081 0.979-0.707 1.768-1.691 1.768h-10.127c-0.981 0-1.785-0.793-1.879-1.769-0.374-3.872-2.088-12.757-9.955-12.757-0.558 0-1.372-0.074-2.079-0.153-0.852-0.095-1.492-0.806-1.525-1.662l-0.408-10.546c-0.040-1.041 0.819-1.893 1.859-1.823 1.619 0.108 3.888 0.297 5.312 0.573 17.193 3.328 20.025 20.726 20.492 26.367z"></path>
</symbol>
<symbol id="icon-document-download" viewBox="0 0 32 32">
<path fill="none" opacity="0.4" stroke="#20b486" style="stroke: var(--color1, #20b486)" stroke-linejoin="round" stroke-linecap="round" stroke-miterlimit="4" stroke-width="1.92" d="M12.16 14.72v7.68l2.56-2.56"></path>
<path fill="none" opacity="0.4" stroke="#20b486" style="stroke: var(--color1, #20b486)" stroke-linejoin="round" stroke-linecap="round" stroke-miterlimit="4" stroke-width="1.92" d="M12.16 22.4l-2.56-2.56"></path>
<path fill="none" stroke="#20b486" style="stroke: var(--color1, #20b486)" stroke-linejoin="round" stroke-linecap="round" stroke-miterlimit="4" stroke-width="1.92" d="M28.8 13.44v6.4c0 6.4-2.56 8.96-8.96 8.96h-7.68c-6.4 0-8.96-2.56-8.96-8.96v-7.68c0-6.4 2.56-8.96 8.96-8.96h6.4"></path>
<path fill="none" stroke="#20b486" style="stroke: var(--color1, #20b486)" stroke-linejoin="round" stroke-linecap="round" stroke-miterlimit="4" stroke-width="1.92" d="M28.8 13.44h-5.12c-3.84 0-5.12-1.28-5.12-5.12v-5.12l10.24 10.24z"></path>
</symbol>
<symbol id="icon-graduate-green" viewBox="0 0 32 32">
<path fill="#f0faf7" style="fill: var(--color2, #f0faf7)" d="M4 0h24c2.209 0 4 1.791 4 4v24c0 2.209-1.791 4-4 4h-24c-2.209 0-4-1.791-4-4v-24c0-2.209 1.791-4 4-4z"></path>
<path fill="none" stroke="#20b486" style="stroke: var(--color1, #20b486)" stroke-linejoin="round" stroke-linecap="round" stroke-miterlimit="4" stroke-width="0.75" d="M5.688 13.25l10.313-5.5 10.313 5.5-10.313 5.5-10.313-5.5z"></path>
<path fill="none" stroke="#20b486" style="stroke: var(--color1, #20b486)" stroke-linejoin="round" stroke-linecap="round" stroke-miterlimit="4" stroke-width="0.75" d="M21.156 25.625v-9.625l-5.156-2.75"></path>
<path fill="none" stroke="#20b486" style="stroke: var(--color1, #20b486)" stroke-linejoin="round" stroke-linecap="round" stroke-miterlimit="4" stroke-width="0.75" d="M23.906 14.53v4.692c-0.001 0.146-0.049 0.288-0.137 0.404-0.576 0.773-3.016 3.592-7.769 3.592s-7.193-2.819-7.769-3.592c-0.089-0.116-0.137-0.258-0.137-0.404v-4.692"></path>
</symbol>
<symbol id="icon-graduate-red" viewBox="0 0 32 32">
<path fill="#ffeef0" style="fill: var(--color3, #ffeef0)" d="M4 0h24c2.209 0 4 1.791 4 4v24c0 2.209-1.791 4-4 4h-24c-2.209 0-4-1.791-4-4v-24c0-2.209 1.791-4 4-4z"></path>
<path fill="none" stroke="#ed4459" style="stroke: var(--color4, #ed4459)" stroke-linejoin="round" stroke-linecap="round" stroke-miterlimit="4" stroke-width="0.75" d="M5.688 13.25l10.313-5.5 10.313 5.5-10.313 5.5-10.313-5.5z"></path>
<path fill="none" stroke="#ed4459" style="stroke: var(--color4, #ed4459)" stroke-linejoin="round" stroke-linecap="round" stroke-miterlimit="4" stroke-width="0.75" d="M21.156 25.625v-9.625l-5.156-2.75"></path>
<path fill="none" stroke="#ed4459" style="stroke: var(--color4, #ed4459)" stroke-linejoin="round" stroke-linecap="round" stroke-miterlimit="4" stroke-width="0.75" d="M23.906 14.53v4.692c-0.001 0.146-0.049 0.288-0.137 0.404-0.576 0.773-3.016 3.592-7.769 3.592s-7.193-2.819-7.769-3.592c-0.089-0.116-0.137-0.258-0.137-0.404v-4.692"></path>
</symbol>
<symbol id="icon-camera" viewBox="0 0 32 32">
<path fill="#fffaf5" style="fill: var(--color5, #fffaf5)" d="M4 0h24c2.209 0 4 1.791 4 4v24c0 2.209-1.791 4-4 4h-24c-2.209 0-4-1.791-4-4v-24c0-2.209 1.791-4 4-4z"></path>
<path fill="none" stroke="#ffc27a" style="stroke: var(--color6, #ffc27a)" stroke-linejoin="round" stroke-linecap="round" stroke-miterlimit="4" stroke-width="0.75" d="M7.063 10.156h11c0.729 0 1.429 0.29 1.945 0.805s0.805 1.215 0.805 1.945v8.25c0 0.182-0.072 0.357-0.201 0.486s-0.304 0.201-0.486 0.201h-11c-0.729 0-1.429-0.29-1.945-0.805s-0.805-1.215-0.805-1.945v-8.25c0-0.182 0.072-0.357 0.201-0.486s0.304-0.201 0.486-0.201v0z"></path>
<path fill="none" stroke="#ffc27a" style="stroke: var(--color6, #ffc27a)" stroke-linejoin="round" stroke-linecap="round" stroke-miterlimit="4" stroke-width="0.75" d="M20.813 14.625l4.813-2.75v8.25l-4.813-2.75"></path>
</symbol>
<symbol id="icon-group" viewBox="0 0 32 32">
<path fill="#f0f7ff" style="fill: var(--color7, #f0f7ff)" d="M4 0h24c2.209 0 4 1.791 4 4v24c0 2.209-1.791 4-4 4h-24c-2.209 0-4-1.791-4-4v-24c0-2.209 1.791-4 4-4z"></path>
<path fill="none" stroke="#0075fd" style="stroke: var(--color8, #0075fd)" stroke-linejoin="round" stroke-linecap="round" stroke-miterlimit="4" stroke-width="0.75" d="M16 20.469c1.898 0 3.438-1.539 3.438-3.438s-1.539-3.438-3.438-3.438c-1.899 0-3.438 1.539-3.438 3.438s1.539 3.438 3.438 3.438z"></path>
<path fill="none" stroke="#0075fd" style="stroke: var(--color8, #0075fd)" stroke-linejoin="round" stroke-linecap="round" stroke-miterlimit="4" stroke-width="0.75" d="M21.844 14.969c0.801-0.001 1.591 0.184 2.307 0.543s1.339 0.879 1.818 1.52"></path>
<path fill="none" stroke="#0075fd" style="stroke: var(--color8, #0075fd)" stroke-linejoin="round" stroke-linecap="round" stroke-miterlimit="4" stroke-width="0.75" d="M6.031 17.031c0.479-0.641 1.102-1.162 1.818-1.52s1.506-0.544 2.307-0.543"></path>
<path fill="none" stroke="#0075fd" style="stroke: var(--color8, #0075fd)" stroke-linejoin="round" stroke-linecap="round" stroke-miterlimit="4" stroke-width="0.75" d="M11.050 23.563c0.453-0.927 1.157-1.709 2.032-2.255s1.886-0.836 2.918-0.836 2.043 0.29 2.918 0.836c0.875 0.547 1.579 1.328 2.032 2.255"></path>
<path fill="none" stroke="#0075fd" style="stroke: var(--color8, #0075fd)" stroke-linejoin="round" stroke-linecap="round" stroke-miterlimit="4" stroke-width="0.75" d="M10.156 14.969c-0.522 0.001-1.033-0.148-1.474-0.427s-0.793-0.678-1.016-1.15-0.306-0.998-0.241-1.516c0.065-0.518 0.276-1.007 0.609-1.409s0.773-0.702 1.269-0.863c0.496-0.162 1.028-0.178 1.534-0.049s0.964 0.4 1.321 0.781c0.357 0.38 0.599 0.855 0.697 1.367"></path>
<path fill="none" stroke="#0075fd" style="stroke: var(--color8, #0075fd)" stroke-linejoin="round" stroke-linecap="round" stroke-miterlimit="4" stroke-width="0.75" d="M19.145 11.703c0.098-0.513 0.34-0.987 0.697-1.367s0.816-0.651 1.321-0.781c0.506-0.13 1.038-0.113 1.534 0.049s0.936 0.461 1.269 0.863c0.332 0.402 0.544 0.891 0.609 1.409s-0.019 1.044-0.241 1.516-0.575 0.871-1.016 1.15c-0.441 0.279-0.952 0.427-1.474 0.427"></path>
</symbol>
<symbol id="icon-save-remove" viewBox="0 0 32 32">
<path fill="none" stroke="#20b486" style="stroke: var(--color1, #20b486)" stroke-linejoin="round" stroke-linecap="round" stroke-miterlimit="4" stroke-width="1.92" d="M21.12 12.147v14.541c0 1.856-1.331 2.637-2.957 1.741l-5.030-2.803c-0.538-0.294-1.408-0.294-1.946 0l-5.030 2.803c-1.626 0.896-2.957 0.115-2.957-1.741v-14.541c0-2.189 1.792-3.981 3.981-3.981h9.958c2.189 0 3.981 1.792 3.981 3.981z"></path>
<path fill="none" opacity="0.4" stroke="#20b486" style="stroke: var(--color1, #20b486)" stroke-linejoin="round" stroke-linecap="round" stroke-miterlimit="4" stroke-width="1.92" d="M10.355 17.805l3.61-3.61"></path>
<path fill="none" opacity="0.4" stroke="#20b486" style="stroke: var(--color1, #20b486)" stroke-linejoin="round" stroke-linecap="round" stroke-miterlimit="4" stroke-width="1.92" d="M13.965 17.805l-3.61-3.61"></path>
<path fill="none" stroke="#20b486" style="stroke: var(--color1, #20b486)" stroke-linejoin="round" stroke-linecap="round" stroke-miterlimit="4" stroke-width="1.92" d="M28.8 7.181v14.541c0 1.856-1.331 2.637-2.957 1.741l-4.723-2.637v-8.678c0-2.189-1.792-3.981-3.981-3.981h-6.259v-0.986c0-2.189 1.792-3.981 3.981-3.981h9.958c2.189 0 3.981 1.792 3.981 3.981z"></path>
</symbol>
<symbol id="icon-Screen-Shot-2023-03-12-at-1519-1" viewBox="0 0 32 32">
<path d="M0 3.572h32v24.856h-32v-24.856z"></path>
</symbol>
<symbol id="icon-search-normal" viewBox="0 0 32 32">
<path fill="none" stroke="#292d32" style="stroke: var(--color9, #292d32)" stroke-linejoin="round" stroke-linecap="round" stroke-miterlimit="4" stroke-width="1.863" d="M14.848 25.936c6.173 0 11.178-5.004 11.178-11.178s-5.004-11.178-11.178-11.178c-6.173 0-11.178 5.004-11.178 11.178s5.004 11.178 11.178 11.178z"></path>
<path fill="none" opacity="0.4" stroke="#292d32" style="stroke: var(--color9, #292d32)" stroke-linejoin="round" stroke-linecap="round" stroke-miterlimit="4" stroke-width="1.863" d="M24.696 26.793c0.658 1.987 2.161 2.186 3.316 0.447 1.056-1.59 0.36-2.894-1.552-2.894-1.416-0.012-2.211 1.093-1.764 2.447z"></path>
</symbol>
<symbol id="icon-quote" viewBox="0 0 32 32">
<path fill="#20b486" style="fill: var(--color1, #20b486); stroke: var(--color10, #6f8191)" stroke="#6f8191" stroke-linejoin="miter" stroke-linecap="butt" stroke-miterlimit="4" stroke-width="0.7442" d="M10.993 17.465l0.108-0.602-0.584 0.181c-0.489 0.152-0.988 0.25-1.508 0.25h-3.537c-2.736 0-4.934-2.126-4.934-4.705v-3.385c0-2.579 2.198-4.705 4.934-4.705h3.537c2.736 0 4.934 2.126 4.934 4.705v6.769c0 6.31-5.372 11.474-12.008 11.474-0.788 0-1.397-0.606-1.397-1.32s0.609-1.32 1.397-1.32c4.541 0 8.313-3.173 9.059-7.343zM28.679 17.465l0.108-0.602-0.584 0.181c-0.489 0.152-0.988 0.25-1.508 0.25h-3.537c-2.736 0-4.934-2.126-4.934-4.705v-3.385c0-2.579 2.198-4.705 4.934-4.705h3.537c2.736 0 4.934 2.126 4.934 4.705v6.769c0 6.31-5.372 11.474-12.008 11.474-0.788 0-1.396-0.606-1.396-1.32s0.609-1.32 1.396-1.32c4.541 0 8.313-3.173 9.059-7.343z"></path>
</symbol>
</defs>
</svg>
