<svg aria-hidden="true" style="position: absolute; width: 0; height: 0; overflow: hidden;" version="1.1" xmlns="http://www.w3.org/2000/svg" xmlns:xlink="http://www.w3.org/1999/xlink">
<defs>
<symbol id="icon-facebook-logo-button" viewBox="0 0 32 32">
<path fill="#20b486" style="fill: var(--color1, #20b486)" d="M21.978 15.924h-4.136c0 6.572 0 14.661 0 14.661h-6.129c0 0 0-8.011 0-14.661h-2.913v-5.182h2.913v-3.352c0-2.4 1.147-6.151 6.185-6.151l4.541 0.017v5.030c0 0-2.76 0-3.296 0s-1.299 0.267-1.299 1.412v3.045h4.669l-0.536 5.181z"></path>
</symbol>
<symbol id="icon-twitter" viewBox="0 0 32 32">
<path fill="#20b486" style="fill: var(--color1, #20b486)" d="M28.453 9.686l0.019 0.811c0 8.277-6.331 17.813-17.91 17.813-3.554 0-6.862-1.036-9.649-2.813 0.492 0.057 0.994 0.089 1.502 0.089 2.95 0 5.663-1.001 7.817-2.68-2.755-0.051-5.078-1.863-5.881-4.348 0.387 0.073 0.777 0.108 1.186 0.108 0.575 0 1.131-0.073 1.659-0.216-2.88-0.579-5.050-3.105-5.050-6.138v-0.079c0.85 0.47 1.819 0.75 2.851 0.785-1.688-1.122-2.8-3.039-2.8-5.21 0-1.147 0.31-2.222 0.85-3.147 3.103 3.789 7.744 6.281 12.976 6.542-0.109-0.458-0.163-0.938-0.163-1.427 0-3.455 2.819-6.259 6.296-6.259 1.809 0 3.445 0.76 4.596 1.977 1.432-0.283 2.781-0.804 3.998-1.519-0.47 1.462-1.467 2.689-2.768 3.465 1.269-0.149 2.487-0.49 3.615-0.985-0.844 1.252-1.914 2.355-3.145 3.233z"></path>
</symbol>
<symbol id="icon-vimeo" viewBox="0 0 32 32">
<path fill="#20b486" style="fill: var(--color1, #20b486)" d="M10.096 0.853c1.625-0.073 2.145-0.091 6.283-0.091s4.658 0.018 6.283 0.091c2.476 0.112 4.651 0.716 6.397 2.453s2.353 3.9 2.466 6.363c0.074 1.617 0.091 2.133 0.091 6.249s-0.018 4.632-0.091 6.249c-0.113 2.463-0.72 4.626-2.466 6.363s-3.921 2.34-6.397 2.453c-1.625 0.073-2.145 0.091-6.283 0.091s-4.658-0.018-6.283-0.091c-2.476-0.112-4.651-0.716-6.397-2.453s-2.353-3.9-2.466-6.363c-0.074-1.616-0.091-2.133-0.091-6.249s0.018-4.632 0.091-6.249c0.113-2.463 0.72-4.626 2.466-6.363s3.921-2.34 6.397-2.453zM22.535 3.581c-1.606-0.073-2.089-0.088-6.157-0.088s-4.551 0.015-6.157 0.088c-1.735 0.078-3.344 0.424-4.582 1.656s-1.586 2.831-1.665 4.557c-0.074 1.598-0.089 2.078-0.089 6.124s0.015 4.526 0.089 6.124c0.079 1.725 0.427 3.325 1.665 4.557s2.847 1.577 4.582 1.656c1.606 0.073 2.089 0.088 6.157 0.088s4.551-0.015 6.157-0.088c1.735-0.078 3.344-0.424 4.582-1.656s1.586-2.831 1.665-4.557c0.074-1.598 0.089-2.077 0.089-6.124s-0.015-4.526-0.089-6.124c-0.079-1.725-0.427-3.325-1.665-4.557s-2.847-1.577-4.582-1.656zM8.552 15.916c0-4.298 3.503-7.782 7.825-7.782s7.825 3.484 7.825 7.782c0 4.298-3.503 7.782-7.825 7.782s-7.825-3.484-7.825-7.782zM11.296 15.916c0 2.79 2.274 5.052 5.079 5.052s5.079-2.262 5.079-5.052c0-2.79-2.274-5.052-5.079-5.052s-5.079 2.262-5.079 5.052zM26.34 7.828c0 1.004-0.819 1.819-1.829 1.819s-1.829-0.814-1.829-1.819c0-1.004 0.819-1.819 1.829-1.819s1.829 0.814 1.829 1.819z"></path>
</symbol>
<symbol id="icon-Combined-Shape" viewBox="0 0 32 32">
<path fill="#20b486" style="fill: var(--color1, #20b486)" d="M29.885 28.491c0.081 0.979-0.707 1.768-1.691 1.768h-10.127c-0.981 0-1.785-0.793-1.879-1.769-0.374-3.872-2.088-12.757-9.955-12.757-0.558 0-1.372-0.074-2.079-0.153-0.852-0.095-1.492-0.806-1.525-1.662l-0.408-10.546c-0.040-1.041 0.819-1.893 1.859-1.823 1.619 0.108 3.888 0.297 5.312 0.573 17.193 3.328 20.025 20.726 20.492 26.367z"></path>
</symbol>
<symbol id="icon-document-download" viewBox="0 0 32 32">
<path fill="none" opacity="0.4" stroke="#20b486" style="stroke: var(--color1, #20b486)" stroke-linejoin="round" stroke-linecap="round" stroke-miterlimit="4" stroke-width="1.92" d="M12.16 14.72v7.68l2.56-2.56"></path>
<path fill="none" opacity="0.4" stroke="#20b486" style="stroke: var(--color1, #20b486)" stroke-linejoin="round" stroke-linecap="round" stroke-miterlimit="4" stroke-width="1.92" d="M12.16 22.4l-2.56-2.56"></path>
<path fill="none" stroke="#20b486" style="stroke: var(--color1, #20b486)" stroke-linejoin="round" stroke-linecap="round" stroke-miterlimit="4" stroke-width="1.92" d="M28.8 13.44v6.4c0 6.4-2.56 8.96-8.96 8.96h-7.68c-6.4 0-8.96-2.56-8.96-8.96v-7.68c0-6.4 2.56-8.96 8.96-8.96h6.4"></path>
<path fill="none" stroke="#20b486" style="stroke: var(--color1, #20b486)" stroke-linejoin="round" stroke-linecap="round" stroke-miterlimit="4" stroke-width="1.92" d="M28.8 13.44h-5.12c-3.84 0-5.12-1.28-5.12-5.12v-5.12l10.24 10.24z"></path>
</symbol>
<symbol id="icon-graduate-green" viewBox="0 0 32 32">
<path fill="#f0faf7" style="fill: var(--color2, #f0faf7)" d="M4 0h24c2.209 0 4 1.791 4 4v24c0 2.209-1.791 4-4 4h-24c-2.209 0-4-1.791-4-4v-24c0-2.209 1.791-4 4-4z"></path>
<path fill="none" stroke="#20b486" style="stroke: var(--color1, #20b486)" stroke-linejoin="round" stroke-linecap="round" stroke-miterlimit="4" stroke-width="0.75" d="M5.688 13.25l10.313-5.5 10.313 5.5-10.313 5.5-10.313-5.5z"></path>
<path fill="none" stroke="#20b486" style="stroke: var(--color1, #20b486)" stroke-linejoin="round" stroke-linecap="round" stroke-miterlimit="4" stroke-width="0.75" d="M21.156 25.625v-9.625l-5.156-2.75"></path>
<path fill="none" stroke="#20b486" style="stroke: var(--color1, #20b486)" stroke-linejoin="round" stroke-linecap="round" stroke-miterlimit="4" stroke-width="0.75" d="M23.906 14.53v4.692c-0.001 0.146-0.049 0.288-0.137 0.404-0.576 0.773-3.016 3.592-7.769 3.592s-7.193-2.819-7.769-3.592c-0.089-0.116-0.137-0.258-0.137-0.404v-4.692"></path>
</symbol>
<symbol id="icon-graduate-red" viewBox="0 0 32 32">
<path fill="#ffeef0" style="fill: var(--color3, #ffeef0)" d="M4 0h24c2.209 0 4 1.791 4 4v24c0 2.209-1.791 4-4 4h-24c-2.209 0-4-1.791-4-4v-24c0-2.209 1.791-4 4-4z"></path>
<path fill="none" stroke="#ed4459" style="stroke: var(--color4, #ed4459)" stroke-linejoin="round" stroke-linecap="round" stroke-miterlimit="4" stroke-width="0.75" d="M5.688 13.25l10.313-5.5 10.313 5.5-10.313 5.5-10.313-5.5z"></path>
<path fill="none" stroke="#ed4459" style="stroke: var(--color4, #ed4459)" stroke-linejoin="round" stroke-linecap="round" stroke-miterlimit="4" stroke-width="0.75" d="M21.156 25.625v-9.625l-5.156-2.75"></path>
<path fill="none" stroke="#ed4459" style="stroke: var(--color4, #ed4459)" stroke-linejoin="round" stroke-linecap="round" stroke-miterlimit="4" stroke-width="0.75" d="M23.906 14.53v4.692c-0.001 0.146-0.049 0.288-0.137 0.404-0.576 0.773-3.016 3.592-7.769 3.592s-7.193-2.819-7.769-3.592c-0.089-0.116-0.137-0.258-0.137-0.404v-4.692"></path>
</symbol>
<symbol id="icon-camera" viewBox="0 0 32 32">
<path fill="#fffaf5" style="fill: var(--color5, #fffaf5)" d="M4 0h24c2.209 0 4 1.791 4 4v24c0 2.209-1.791 4-4 4h-24c-2.209 0-4-1.791-4-4v-24c0-2.209 1.791-4 4-4z"></path>
<path fill="none" stroke="#ffc27a" style="stroke: var(--color6, #ffc27a)" stroke-linejoin="round" stroke-linecap="round" stroke-miterlimit="4" stroke-width="0.75" d="M7.063 10.156h11c0.729 0 1.429 0.29 1.945 0.805s0.805 1.215 0.805 1.945v8.25c0 0.182-0.072 0.357-0.201 0.486s-0.304 0.201-0.486 0.201h-11c-0.729 0-1.429-0.29-1.945-0.805s-0.805-1.215-0.805-1.945v-8.25c0-0.182 0.072-0.357 0.201-0.486s0.304-0.201 0.486-0.201v0z"></path>
<path fill="none" stroke="#ffc27a" style="stroke: var(--color6, #ffc27a)" stroke-linejoin="round" stroke-linecap="round" stroke-miterlimit="4" stroke-width="0.75" d="M20.813 14.625l4.813-2.75v8.25l-4.813-2.75"></path>
</symbol>
<symbol id="icon-group" viewBox="0 0 32 32">
<path fill="#f0f7ff" style="fill: var(--color7, #f0f7ff)" d="M4 0h24c2.209 0 4 1.791 4 4v24c0 2.209-1.791 4-4 4h-24c-2.209 0-4-1.791-4-4v-24c0-2.209 1.791-4 4-4z"></path>
<path fill="none" stroke="#0075fd" style="stroke: var(--color8, #0075fd)" stroke-linejoin="round" stroke-linecap="round" stroke-miterlimit="4" stroke-width="0.75" d="M16 20.469c1.898 0 3.438-1.539 3.438-3.438s-1.539-3.438-3.438-3.438c-1.899 0-3.438 1.539-3.438 3.438s1.539 3.438 3.438 3.438z"></path>
<path fill="none" stroke="#0075fd" style="stroke: var(--color8, #0075fd)" stroke-linejoin="round" stroke-linecap="round" stroke-miterlimit="4" stroke-width="0.75" d="M21.844 14.969c0.801-0.001 1.591 0.184 2.307 0.543s1.339 0.879 1.818 1.52"></path>
<path fill="none" stroke="#0075fd" style="stroke: var(--color8, #0075fd)" stroke-linejoin="round" stroke-linecap="round" stroke-miterlimit="4" stroke-width="0.75" d="M6.031 17.031c0.479-0.641 1.102-1.162 1.818-1.52s1.506-0.544 2.307-0.543"></path>
<path fill="none" stroke="#0075fd" style="stroke: var(--color8, #0075fd)" stroke-linejoin="round" stroke-linecap="round" stroke-miterlimit="4" stroke-width="0.75" d="M11.050 23.563c0.453-0.927 1.157-1.709 2.032-2.255s1.886-0.836 2.918-0.836 2.043 0.29 2.918 0.836c0.875 0.547 1.579 1.328 2.032 2.255"></path>
<path fill="none" stroke="#0075fd" style="stroke: var(--color8, #0075fd)" stroke-linejoin="round" stroke-linecap="round" stroke-miterlimit="4" stroke-width="0.75" d="M10.156 14.969c-0.522 0.001-1.033-0.148-1.474-0.427s-0.793-0.678-1.016-1.15-0.306-0.998-0.241-1.516c0.065-0.518 0.276-1.007 0.609-1.409s0.773-0.702 1.269-0.863c0.496-0.162 1.028-0.178 1.534-0.049s0.964 0.4 1.321 0.781c0.357 0.38 0.599 0.855 0.697 1.367"></path>
<path fill="none" stroke="#0075fd" style="stroke: var(--color8, #0075fd)" stroke-linejoin="round" stroke-linecap="round" stroke-miterlimit="4" stroke-width="0.75" d="M19.145 11.703c0.098-0.513 0.34-0.987 0.697-1.367s0.816-0.651 1.321-0.781c0.506-0.13 1.038-0.113 1.534 0.049s0.936 0.461 1.269 0.863c0.332 0.402 0.544 0.891 0.609 1.409s-0.019 1.044-0.241 1.516-0.575 0.871-1.016 1.15c-0.441 0.279-0.952 0.427-1.474 0.427"></path>
</symbol>
<symbol id="icon-save-remove" viewBox="0 0 32 32">
<path fill="none" stroke="#20b486" style="stroke: var(--color1, #20b486)" stroke-linejoin="round" stroke-linecap="round" stroke-miterlimit="4" stroke-width="1.92" d="M21.12 12.147v14.541c0 1.856-1.331 2.637-2.957 1.741l-5.030-2.803c-0.538-0.294-1.408-0.294-1.946 0l-5.030 2.803c-1.626 0.896-2.957 0.115-2.957-1.741v-14.541c0-2.189 1.792-3.981 3.981-3.981h9.958c2.189 0 3.981 1.792 3.981 3.981z"></path>
<path fill="none" opacity="0.4" stroke="#20b486" style="stroke: var(--color1, #20b486)" stroke-linejoin="round" stroke-linecap="round" stroke-miterlimit="4" stroke-width="1.92" d="M10.355 17.805l3.61-3.61"></path>
<path fill="none" opacity="0.4" stroke="#20b486" style="stroke: var(--color1, #20b486)" stroke-linejoin="round" stroke-linecap="round" stroke-miterlimit="4" stroke-width="1.92" d="M13.965 17.805l-3.61-3.61"></path>
<path fill="none" stroke="#20b486" style="stroke: var(--color1, #20b486)" stroke-linejoin="round" stroke-linecap="round" stroke-miterlimit="4" stroke-width="1.92" d="M28.8 7.181v14.541c0 1.856-1.331 2.637-2.957 1.741l-4.723-2.637v-8.678c0-2.189-1.792-3.981-3.981-3.981h-6.259v-0.986c0-2.189 1.792-3.981 3.981-3.981h9.958c2.189 0 3.981 1.792 3.981 3.981z"></path>
</symbol>
<symbol id="icon-Screen-Shot-2023-03-12-at-1519-1" viewBox="0 0 32 32">
<path d="M0 3.572h32v24.856h-32v-24.856z"></path>
</symbol>
<symbol id="icon-search-normal" viewBox="0 0 32 32">
<path fill="none" stroke="#292d32" style="stroke: var(--color9, #292d32)" stroke-linejoin="round" stroke-linecap="round" stroke-miterlimit="4" stroke-width="1.863" d="M14.848 25.936c6.173 0 11.178-5.004 11.178-11.178s-5.004-11.178-11.178-11.178c-6.173 0-11.178 5.004-11.178 11.178s5.004 11.178 11.178 11.178z"></path>
<path fill="none" opacity="0.4" stroke="#292d32" style="stroke: var(--color9, #292d32)" stroke-linejoin="round" stroke-linecap="round" stroke-miterlimit="4" stroke-width="1.863" d="M24.696 26.793c0.658 1.987 2.161 2.186 3.316 0.447 1.056-1.59 0.36-2.894-1.552-2.894-1.416-0.012-2.211 1.093-1.764 2.447z"></path>
</symbol>
<symbol id="icon-quote" viewBox="0 0 32 32">
<path fill="#20b486" style="fill: var(--color1, #20b486); stroke: var(--color10, #6f8191)" stroke="#6f8191" stroke-linejoin="miter" stroke-linecap="butt" stroke-miterlimit="4" stroke-width="0.7442" d="M10.993 17.465l0.108-0.602-0.584 0.181c-0.489 0.152-0.988 0.25-1.508 0.25h-3.537c-2.736 0-4.934-2.126-4.934-4.705v-3.385c0-2.579 2.198-4.705 4.934-4.705h3.537c2.736 0 4.934 2.126 4.934 4.705v6.769c0 6.31-5.372 11.474-12.008 11.474-0.788 0-1.397-0.606-1.397-1.32s0.609-1.32 1.397-1.32c4.541 0 8.313-3.173 9.059-7.343zM28.679 17.465l0.108-0.602-0.584 0.181c-0.489 0.152-0.988 0.25-1.508 0.25h-3.537c-2.736 0-4.934-2.126-4.934-4.705v-3.385c0-2.579 2.198-4.705 4.934-4.705h3.537c2.736 0 4.934 2.126 4.934 4.705v6.769c0 6.31-5.372 11.474-12.008 11.474-0.788 0-1.396-0.606-1.396-1.32s0.609-1.32 1.396-1.32c4.541 0 8.313-3.173 9.059-7.343z"></path>
</symbol>
<symbol id="icon-menu" viewBox="0 0 32 32">
<path fill="none" stroke="#06241b" style="stroke: var(--color1, #06241b)" stroke-linejoin="miter" stroke-linecap="round" stroke-miterlimit="4" stroke-width="2" d="M4 9.333h24"></path>
<path fill="none" opacity="0.34" stroke="#06241b" style="stroke: var(--color1, #06241b)" stroke-linejoin="miter" stroke-linecap="round" stroke-miterlimit="4" stroke-width="2" d="M4 16h24"></path>
<path fill="none" stroke="#06241b" style="stroke: var(--color1, #06241b)" stroke-linejoin="miter" stroke-linecap="round" stroke-miterlimit="4" stroke-width="2" d="M4 22.667h24"></path>
</symbol>
<symbol id="icon-search-zoom-out" viewBox="0 0 32 32">
<path fill="none" opacity="0.4" stroke="#292d32" style="stroke: var(--color2, #292d32)" stroke-linejoin="round" stroke-linecap="round" stroke-miterlimit="4" stroke-width="2" d="M12 15.6h6.667"></path>
<path fill="none" stroke="#292d32" style="stroke: var(--color2, #292d32)" stroke-linejoin="round" stroke-linecap="round" stroke-miterlimit="4" stroke-width="2" d="M15.333 28c6.996 0 12.667-5.671 12.667-12.667s-5.671-12.667-12.667-12.667c-6.996 0-12.667 5.671-12.667 12.667s5.671 12.667 12.667 12.667z"></path>
<path fill="none" opacity="0.4" stroke="#292d32" style="stroke: var(--color2, #292d32)" stroke-linejoin="round" stroke-linecap="round" stroke-miterlimit="4" stroke-width="2" d="M29.333 29.333l-2.667-2.667"></path>
</symbol>
<symbol id="icon-home-2" viewBox="0 0 32 32">
<path fill="none" stroke="#292d32" style="stroke: var(--color1, #292d32)" stroke-linejoin="round" stroke-linecap="round" stroke-miterlimit="4" stroke-width="2" d="M12.027 3.787l-7.187 5.6c-1.2 0.933-2.173 2.92-2.173 4.427v9.88c0 3.093 2.52 5.627 5.613 5.627h15.44c3.093 0 5.613-2.533 5.613-5.613v-9.707c0-1.613-1.080-3.68-2.4-4.6l-8.24-5.773c-1.867-1.307-4.867-1.24-6.667 0.16z"></path>
<path fill="none" opacity="0.34" stroke="#292d32" style="stroke: var(--color1, #292d32)" stroke-linejoin="round" stroke-linecap="round" stroke-miterlimit="4" stroke-width="2" d="M16 23.987v-4"></path>
</symbol>
<symbol id="icon-right-icon" viewBox="0 0 32 32">
<path stroke-linejoin="round" stroke-linecap="round" stroke-miterlimit="4" stroke-width="2" d="M13.333 22.667l5.333-6.667-5.333-6.667"></path>
</symbol>
<symbol id='icon-arrow-down' viewBox="0 0 25 24" fill="none" xmlns="http://www.w3.org/2000/svg">
<path d="M4.57998 8.91003L11.1 15.43C11.87 16.2 13.13 16.2 13.9 15.43L20.42 8.91003" stroke="#292D32" stroke-width="1.5" stroke-miterlimit="10" stroke-linecap="round" stroke-linejoin="round"/>
</symbol>
<symbol id="icon-client_signup" viewBox="0 0 32 32">
<path d="M0 0h32v32h-32v-32z"></path>
</symbol>
<symbol id="icon-employee_signup" viewBox="0 0 32 32">
<path d="M0 0h32v32h-32v-32z"></path>
</symbol>
<symbol id="icon-radioButton" viewBox="0 0 32 32">
<path stroke-linejoin="miter" stroke-linecap="butt" stroke-miterlimit="4" stroke-width="2.6667" d="M16 4c6.627 0 12 5.373 12 12s-5.373 12-12 12c-6.627 0-12-5.373-12-12s5.373-12 12-12z"></path>
</symbol>
<symbol width="25" height="25" id="icon-google"  viewBox="0 0 25 25" fill="none" xmlns="http://www.w3.org/2000/svg">
<path d="M23.001 12.7331C23.001 11.8698 22.9296 11.2398 22.7748 10.5864H12.7153V14.483H18.62C18.501 15.4514 17.8582 16.9097 16.4296 17.8897L16.4096 18.0202L19.5902 20.4349L19.8106 20.4564C21.8343 18.6247 23.001 15.9297 23.001 12.7331Z" fill="#4285F4"/>
<path d="M12.714 23.0001C15.6068 23.0001 18.0353 22.0667 19.8092 20.4567L16.4282 17.89C15.5235 18.5083 14.3092 18.94 12.714 18.94C9.88069 18.94 7.47596 17.1083 6.61874 14.5767L6.49309 14.5871L3.18583 17.0955L3.14258 17.2133C4.90446 20.6433 8.5235 23.0001 12.714 23.0001Z" fill="#34A853"/>
<path d="M6.62046 14.5767C6.39428 13.9234 6.26337 13.2233 6.26337 12.5C6.26337 11.7767 6.39428 11.0767 6.60856 10.4234L6.60257 10.2842L3.25386 7.7356L3.14429 7.78667C2.41814 9.21002 2.00146 10.8084 2.00146 12.5C2.00146 14.1917 2.41814 15.79 3.14429 17.2133L6.62046 14.5767Z" fill="#FBBC05"/>
<path d="M12.7141 6.05997C14.7259 6.05997 16.083 6.91163 16.8569 7.62335L19.8807 4.73C18.0236 3.03834 15.6069 2 12.7141 2C8.52353 2 4.90447 4.35665 3.14258 7.78662L6.60686 10.4233C7.47598 7.89166 9.88073 6.05997 12.7141 6.05997Z" fill="#EB4335"/>
</symbol>
<symbol id="icon-right-arrow" width="24" height="24" viewBox="0 0 24 24" fill="none" xmlns="http://www.w3.org/2000/svg">
<path d="M10 17L14 12L10 7" stroke="#3D4249" stroke-width="1.5" stroke-linecap="round" stroke-linejoin="round"/>
</symbol>
<symbol id="icon-eye" width="28" height="24" viewBox="0 0 28 24" fill="none" xmlns="http://www.w3.org/2000/svg">
<path opacity="0.4" d="M17.5799 11.9999C17.5799 13.9799 15.9799 15.5799 13.9999 15.5799C12.0199 15.5799 10.4199 13.9799 10.4199 11.9999C10.4199 10.0199 12.0199 8.41992 13.9999 8.41992C15.9799 8.41992 17.5799 10.0199 17.5799 11.9999Z" stroke="#06241B" stroke-width="1.5" stroke-linecap="round" stroke-linejoin="round"/>
<path d="M14.0001 20.27C17.5301 20.27 20.8201 18.19 23.1101 14.59C24.0101 13.18 24.0101 10.81 23.1101 9.39997C20.8201 5.79997 17.5301 3.71997 14.0001 3.71997C10.4701 3.71997 7.18009 5.79997 4.89009 9.39997C3.99009 10.81 3.99009 13.18 4.89009 14.59C7.18009 18.19 10.4701 20.27 14.0001 20.27Z" stroke="white" stroke-width="1.5" stroke-linecap="round" stroke-linejoin="round"/>
</symbol>
<symbol id="black-box" width="28" height="24" viewBox="0 0 28 24" fill="none" xmlns="http://www.w3.org/2000/svg">
<rect width="28" height="24" rx="2" fill="#06241B"/>
<g opacity="0.4">
<path d="M11.3203 6.50043L13.8803 3.94043L16.4403 6.50043" stroke="white" stroke-width="1.5" stroke-miterlimit="10" stroke-linecap="round" stroke-linejoin="round"/>
<path d="M13.8809 14.1798V4.00977" stroke="white" stroke-width="1.5" stroke-miterlimit="10" stroke-linecap="round" stroke-linejoin="round"/>
</g>
<path d="M6 12C6 16.42 9 20 14 20C19 20 22 16.42 22 12" stroke="white" stroke-width="1.5" stroke-miterlimit="10" stroke-linecap="round" stroke-linejoin="round"/>
</symbol>
<symbol id="edit-icon" width="24" height="24" viewBox="0 0 24 24" fill="none" xmlns="http://www.w3.org/2000/svg">
<path opacity="0.4" d="M11 2H9C4 2 2 4 2 9V15C2 20 4 22 9 22H15C20 22 22 20 22 15V13" stroke="#06241B" stroke-width="1.5" stroke-linecap="round" stroke-linejoin="round"/>
<path d="M16.0399 3.02001L8.15988 10.9C7.85988 11.2 7.55988 11.79 7.49988 12.22L7.06988 15.23C6.90988 16.32 7.67988 17.08 8.76988 16.93L11.7799 16.5C12.1999 16.44 12.7899 16.14 13.0999 15.84L20.9799 7.96001C22.3399 6.60001 22.9799 5.02001 20.9799 3.02001C18.9799 1.02001 17.3999 1.66001 16.0399 3.02001Z" stroke="#06241B" stroke-width="1.5" stroke-miterlimit="10" stroke-linecap="round" stroke-linejoin="round"/>
<path opacity="0.4" d="M14.9099 4.1499C15.5799 6.5399 17.4499 8.4099 19.8499 9.0899" stroke="#06241B" stroke-width="1.5" stroke-miterlimit="10" stroke-linecap="round" stroke-linejoin="round"/>
</symbol>
<symbol id="location-icon" viewBox="0 0 24 24" fill="none" xmlns="http://www.w3.org/2000/svg">
<path opacity="0.4" d="M11.9999 13.4299C13.723 13.4299 15.1199 12.0331 15.1199 10.3099C15.1199 8.58681 13.723 7.18994 11.9999 7.18994C10.2768 7.18994 8.87988 8.58681 8.87988 10.3099C8.87988 12.0331 10.2768 13.4299 11.9999 13.4299Z" stroke="#292D32" stroke-width="1.5"/>
<path d="M3.61995 8.49C5.58995 -0.169998 18.42 -0.159997 20.38 8.5C21.53 13.58 18.37 17.88 15.6 20.54C13.59 22.48 10.41 22.48 8.38995 20.54C5.62995 17.88 2.46995 13.57 3.61995 8.49Z" stroke="#292D32" stroke-width="1.5"/>
</symbol>
<symbol id="add-video" width="24" height="24" viewBox="0 0 24 24" fill="none" xmlns="http://www.w3.org/2000/svg">
<g opacity="0.4">
<path d="M8 12H16" stroke="#06241B" stroke-width="1.5" stroke-linecap="round" stroke-linejoin="round"/>
<path d="M12 16V8" stroke="#06241B" stroke-width="1.5" stroke-linecap="round" stroke-linejoin="round"/>
</g>
<path d="M9 22H15C20 22 22 20 22 15V9C22 4 20 2 15 2H9C4 2 2 4 2 9V15C2 20 4 22 9 22Z" stroke="#06241B" stroke-width="1.5" stroke-linecap="round" stroke-linejoin="round"/>
</symbol>
<symbol id="location-icon2" width="24" height="24" viewBox="0 0 24 24" fill="none" xmlns="http://www.w3.org/2000/svg">
<g opacity="0.4">
<path d="M9.25 11H14.75" stroke="#20B486" stroke-width="1.5" stroke-linecap="round"/>
<path d="M12 13.75V8.25" stroke="#20B486" stroke-width="1.5" stroke-linecap="round"/>
</g>
<path d="M3.6202 8.49C5.5902 -0.169998 18.4202 -0.159997 20.3802 8.5C21.5302 13.58 18.3702 17.88 15.6002 20.54C13.5902 22.48 10.4102 22.48 8.3902 20.54C5.6302 17.88 2.4702 13.57 3.6202 8.49Z" stroke="#20B486" stroke-width="1.5"/>
</symbol>
<symbol id="clock-icon" width="25" height="24" viewBox="0 0 25 24" fill="none" xmlns="http://www.w3.org/2000/svg">
<path d="M21.585 13.25C21.585 18.08 17.665 22 12.835 22C8.00496 22 4.08496 18.08 4.08496 13.25C4.08496 8.42 8.00496 4.5 12.835 4.5C17.665 4.5 21.585 8.42 21.585 13.25Z" stroke="#20B486" stroke-width="1.5" stroke-linecap="round" stroke-linejoin="round"/>
<path opacity="0.4" d="M12.835 8V13" stroke="#20B486" stroke-width="1.5" stroke-linecap="round" stroke-linejoin="round"/>
<path opacity="0.4" d="M9.83496 2H15.835" stroke="#20B486" stroke-width="1.5" stroke-miterlimit="10" stroke-linecap="round" stroke-linejoin="round"/>
</symbol>
<symbol id="save-icon" width="24" height="24" viewBox="0 0 24 24" fill="none" xmlns="http://www.w3.org/2000/svg">
<path d="M16 8.98987V20.3499C16 21.7999 14.96 22.4099 13.69 21.7099L9.76001 19.5199C9.34001 19.2899 8.65999 19.2899 8.23999 19.5199L4.31 21.7099C3.04 22.4099 2 21.7999 2 20.3499V8.98987C2 7.27987 3.39999 5.87988 5.10999 5.87988H12.89C14.6 5.87988 16 7.27987 16 8.98987Z" stroke="#06241B" stroke-width="1.5" stroke-linecap="round" stroke-linejoin="round"/>
<path opacity="0.4" d="M22 5.10999V16.47C22 17.92 20.96 18.53 19.69 17.83L16 15.77V8.98999C16 7.27999 14.6 5.88 12.89 5.88H8V5.10999C8 3.39999 9.39999 2 11.11 2H18.89C20.6 2 22 3.39999 22 5.10999Z" stroke="#6F8191" stroke-width="1.5" stroke-linecap="round" stroke-linejoin="round"/>
<path opacity="0.4" d="M7 12H11" stroke="#6F8191" stroke-width="1.5" stroke-linecap="round" stroke-linejoin="round"/>
</symbol>
<symbol id="filter-icon" width="16" height="16" viewBox="0 0 16 16" fill="none" xmlns="http://www.w3.org/2000/svg">
<path opacity="0.4" d="M9.54655 12.7134C9.54655 13.1201 9.27986 13.6534 8.93986 13.8601L7.99988 14.4668C7.12654 15.0068 5.91321 14.4001 5.91321 13.3201V9.75342C5.91321 9.28008 5.64654 8.67342 5.37321 8.34009L2.81319 5.64675C2.47319 5.30675 2.20654 4.70676 2.20654 4.30009V2.75342C2.20654 1.94675 2.81322 1.34009 3.55322 1.34009H12.4465C13.1865 1.34009 13.7932 1.94675 13.7932 2.68675V4.16675C13.7932 4.70675 13.4532 5.38009 13.1199 5.71342" stroke="#292D32" stroke-width="1.5" stroke-miterlimit="10" stroke-linecap="round" stroke-linejoin="round"/>
<path d="M10.7134 11.0132C11.8916 11.0132 12.8468 10.0581 12.8468 8.87992C12.8468 7.70172 11.8916 6.74658 10.7134 6.74658C9.53521 6.74658 8.58008 7.70172 8.58008 8.87992C8.58008 10.0581 9.53521 11.0132 10.7134 11.0132Z" stroke="#292D32" stroke-width="1.5" stroke-linecap="round" stroke-linejoin="round"/>
<path d="M13.2467 11.4132L12.5801 10.7466" stroke="#292D32" stroke-width="1.5" stroke-linecap="round" stroke-linejoin="round"/>
</symbol>
<symbol id="icon-x" viewBox="0 0 32 32">
<path d="M30 24.398l-8.406-8.398 8.406-8.398-5.602-5.602-8.398 8.402-8.402-8.402-5.598 5.602 8.398 8.398-8.398 8.398 5.598 5.602 8.402-8.402 8.398 8.402z"></path>
</symbol>
<symbol id="icon-green-fb" width="9" height="20" viewBox="0 0 9 20" fill="none" xmlns="http://www.w3.org/2000/svg">
<path d="M8.23616 9.95276H5.6512C5.6512 14.0602 5.6512 19.116 5.6512 19.116H1.8208C1.8208 19.116 1.8208 14.1092 1.8208 9.95276H0V6.71419H1.8208V4.61943C1.8208 3.11917 2.5376 0.774902 5.6864 0.774902L8.5248 0.785723V3.92945C8.5248 3.92945 6.8 3.92945 6.46464 3.92945C6.12928 3.92945 5.65248 4.09622 5.65248 4.81166V6.71483H8.57088L8.23616 9.95276Z" fill="#20B486"/>
</symbol>
<symbol  id="icon-green-twitter" width="20" height="16" viewBox="0 0 20 16" fill="none" xmlns="http://www.w3.org/2000/svg">
<path d="M17.7833 4.05368L17.7953 4.56028C17.7953 9.7334 13.8382 15.6933 6.60125 15.6933C4.38005 15.6933 2.3126 15.0457 0.570801 13.9351C0.878447 13.9708 1.19201 13.9907 1.50964 13.9907C3.35335 13.9907 5.04922 13.3649 6.39552 12.316C4.6737 12.2842 3.22148 11.1518 2.72012 9.59832C2.9618 9.644 3.20551 9.6659 3.46118 9.6659C3.82074 9.6659 4.16827 9.62022 4.49786 9.53082C2.69811 9.16923 1.34182 7.58991 1.34182 5.69469V5.64503C1.87314 5.93904 2.47838 6.11385 3.12357 6.13574C2.06889 5.43447 1.37376 4.23653 1.37376 2.87966C1.37376 2.16251 1.56753 1.49104 1.90508 0.912947C3.84466 3.28098 6.74502 4.83847 10.0149 5.00139C9.94699 4.71529 9.91309 4.41533 9.91309 4.10942C9.91309 1.94999 11.6749 0.197754 13.8482 0.197754C14.9787 0.197754 16.0015 0.672524 16.7205 1.4334C17.6154 1.25656 18.4584 0.930788 19.2194 0.483792C18.9258 1.39765 18.3026 2.16447 17.4896 2.64917C18.2826 2.55579 19.0437 2.3432 19.7488 2.03331C19.2215 2.81601 18.5523 3.50539 17.7833 4.05368Z" fill="#20B486"/>
</symbol>
<symbol  id="icon-green-instagram" width="21" height="20" viewBox="0 0 21 20" fill="none" xmlns="http://www.w3.org/2000/svg">
<path fill-rule="evenodd" clip-rule="evenodd" d="M6.62569 0.0596729C7.69236 0.0116031 8.03319 0 10.749 0C13.4649 0 13.8057 0.0116031 14.8724 0.0596729C16.4974 0.133435 17.9249 0.529597 19.0707 1.66918C20.2165 2.80877 20.6149 4.22849 20.689 5.84463C20.7374 6.90549 20.749 7.24446 20.749 9.94549C20.749 12.6465 20.7374 12.9855 20.689 14.0463C20.6149 15.6625 20.2165 17.0822 19.0707 18.2218C17.9249 19.3614 16.4974 19.7575 14.8724 19.8313C13.8057 19.8794 13.4649 19.891 10.749 19.891C8.03319 19.891 7.69236 19.8794 6.62569 19.8313C5.00069 19.7575 3.57319 19.3614 2.42736 18.2218C1.28152 17.0822 0.88319 15.6625 0.809023 14.0463C0.76069 12.9855 0.749023 12.6465 0.749023 9.94549C0.749023 7.24446 0.76069 6.90549 0.809023 5.84463C0.88319 4.22849 1.28152 2.80877 2.42736 1.66918C3.57319 0.529597 5.00069 0.133435 6.62569 0.0596729ZM14.789 1.85001C13.7348 1.80194 13.4181 1.79199 10.7481 1.79199C8.07814 1.79199 7.76147 1.80194 6.7073 1.85001C5.56897 1.90139 4.51314 2.12848 3.70064 2.93655C2.88814 3.74462 2.6598 4.7947 2.60814 5.92683C2.5598 6.97525 2.5498 7.29019 2.5498 9.94564C2.5498 12.6011 2.5598 12.916 2.60814 13.9644C2.6598 15.0966 2.88814 16.1467 3.70064 16.9547C4.51314 17.7628 5.56897 17.9899 6.7073 18.0413C7.76147 18.0893 8.07814 18.0993 10.7481 18.0993C13.4181 18.0993 13.7348 18.0893 14.789 18.0413C15.9273 17.9899 16.9831 17.7628 17.7956 16.9547C18.6081 16.1467 18.8365 15.0966 18.8881 13.9644C18.9365 12.916 18.9465 12.6011 18.9465 9.94564C18.9465 7.29019 18.9365 6.97525 18.8881 5.92683C18.8365 4.7947 18.6081 3.74462 17.7956 2.93655C16.9831 2.12848 15.9273 1.90139 14.789 1.85001ZM5.6123 9.9449C5.6123 7.12453 7.91147 4.83789 10.7473 4.83789C13.5831 4.83789 15.8823 7.12453 15.8823 9.9449C15.8823 12.7653 13.5831 15.0519 10.7473 15.0519C7.91147 15.0519 5.6123 12.7653 5.6123 9.9449ZM7.41309 9.94504C7.41309 11.7758 8.90558 13.2602 10.7464 13.2602C12.5872 13.2602 14.0797 11.7758 14.0797 9.94504C14.0797 8.11425 12.5872 6.62988 10.7464 6.62988C8.90558 6.62988 7.41309 8.11425 7.41309 9.94504ZM17.2857 4.63682C17.2857 5.29595 16.7485 5.83028 16.0857 5.83028C15.423 5.83028 14.8857 5.29595 14.8857 4.63682C14.8857 3.97769 15.423 3.44336 16.0857 3.44336C16.7485 3.44336 17.2857 3.97769 17.2857 4.63682Z" fill="#20B486"/>
</symbol>
<symbol  id="icon-green-shape" width="17" height="18" viewBox="0 0 17 18" fill="none" xmlns="http://www.w3.org/2000/svg">
<path fill-rule="evenodd" clip-rule="evenodd" d="M16.3103 16.026C16.3559 16.5769 15.9128 17.0205 15.3594 17.0205H9.6629C9.11117 17.0205 8.6589 16.5742 8.60598 16.0257C8.39585 13.8476 7.43156 8.85015 3.00642 8.85015C2.69253 8.85015 2.23475 8.80855 1.83682 8.76433C1.35749 8.71106 0.997604 8.31124 0.978999 7.82974L0.749786 1.89772C0.72717 1.31242 1.21075 0.833189 1.79575 0.87236C2.70664 0.933351 3.98266 1.03956 4.78353 1.19459C14.4547 3.06673 16.0479 12.8527 16.3103 16.026Z" fill="#20B486"/>
</symbol>
<symbol  id="icon-search" viewBox="0 0 16 17" fill="none" xmlns="http://www.w3.org/2000/svg">
<circle cx="7.74142" cy="8.42404" r="6.74142" stroke="#06241B" stroke-width="1.5" stroke-linecap="round" stroke-linejoin="round"/>
<path d="M12.4302 13.4629L15.0732 16.099" stroke="#06241B" stroke-width="1.5" stroke-linecap="round" stroke-linejoin="round"/>
</symbol>






</defs>
</svg>
