<svg aria-hidden="true" style="position: absolute; width: 0; height: 0; overflow: hidden;" version="1.1" xmlns="http://www.w3.org/2000/svg" xmlns:xlink="http://www.w3.org/1999/xlink">
<defs>
<symbol id="icon-facebook-logo-button" viewBox="0 0 32 32">
<path fill="#20b486" style="fill: var(--color1, #20b486)" d="M21.978 15.924h-4.136c0 6.572 0 14.661 0 14.661h-6.129c0 0 0-8.011 0-14.661h-2.913v-5.182h2.913v-3.352c0-2.4 1.147-6.151 6.185-6.151l4.541 0.017v5.030c0 0-2.76 0-3.296 0s-1.299 0.267-1.299 1.412v3.045h4.669l-0.536 5.181z"></path>
</symbol>
<symbol id="icon-twitter" viewBox="0 0 32 32">
<path fill="#20b486" style="fill: var(--color1, #20b486)" d="M28.453 9.686l0.019 0.811c0 8.277-6.331 17.813-17.91 17.813-3.554 0-6.862-1.036-9.649-2.813 0.492 0.057 0.994 0.089 1.502 0.089 2.95 0 5.663-1.001 7.817-2.68-2.755-0.051-5.078-1.863-5.881-4.348 0.387 0.073 0.777 0.108 1.186 0.108 0.575 0 1.131-0.073 1.659-0.216-2.88-0.579-5.050-3.105-5.050-6.138v-0.079c0.85 0.47 1.819 0.75 2.851 0.785-1.688-1.122-2.8-3.039-2.8-5.21 0-1.147 0.31-2.222 0.85-3.147 3.103 3.789 7.744 6.281 12.976 6.542-0.109-0.458-0.163-0.938-0.163-1.427 0-3.455 2.819-6.259 6.296-6.259 1.809 0 3.445 0.76 4.596 1.977 1.432-0.283 2.781-0.804 3.998-1.519-0.47 1.462-1.467 2.689-2.768 3.465 1.269-0.149 2.487-0.49 3.615-0.985-0.844 1.252-1.914 2.355-3.145 3.233z"></path>
</symbol>
<symbol id="icon-vimeo" viewBox="0 0 32 32">
<path fill="#20b486" style="fill: var(--color1, #20b486)" d="M10.096 0.853c1.625-0.073 2.145-0.091 6.283-0.091s4.658 0.018 6.283 0.091c2.476 0.112 4.651 0.716 6.397 2.453s2.353 3.9 2.466 6.363c0.074 1.617 0.091 2.133 0.091 6.249s-0.018 4.632-0.091 6.249c-0.113 2.463-0.72 4.626-2.466 6.363s-3.921 2.34-6.397 2.453c-1.625 0.073-2.145 0.091-6.283 0.091s-4.658-0.018-6.283-0.091c-2.476-0.112-4.651-0.716-6.397-2.453s-2.353-3.9-2.466-6.363c-0.074-1.616-0.091-2.133-0.091-6.249s0.018-4.632 0.091-6.249c0.113-2.463 0.72-4.626 2.466-6.363s3.921-2.34 6.397-2.453zM22.535 3.581c-1.606-0.073-2.089-0.088-6.157-0.088s-4.551 0.015-6.157 0.088c-1.735 0.078-3.344 0.424-4.582 1.656s-1.586 2.831-1.665 4.557c-0.074 1.598-0.089 2.078-0.089 6.124s0.015 4.526 0.089 6.124c0.079 1.725 0.427 3.325 1.665 4.557s2.847 1.577 4.582 1.656c1.606 0.073 2.089 0.088 6.157 0.088s4.551-0.015 6.157-0.088c1.735-0.078 3.344-0.424 4.582-1.656s1.586-2.831 1.665-4.557c0.074-1.598 0.089-2.077 0.089-6.124s-0.015-4.526-0.089-6.124c-0.079-1.725-0.427-3.325-1.665-4.557s-2.847-1.577-4.582-1.656zM8.552 15.916c0-4.298 3.503-7.782 7.825-7.782s7.825 3.484 7.825 7.782c0 4.298-3.503 7.782-7.825 7.782s-7.825-3.484-7.825-7.782zM11.296 15.916c0 2.79 2.274 5.052 5.079 5.052s5.079-2.262 5.079-5.052c0-2.79-2.274-5.052-5.079-5.052s-5.079 2.262-5.079 5.052zM26.34 7.828c0 1.004-0.819 1.819-1.829 1.819s-1.829-0.814-1.829-1.819c0-1.004 0.819-1.819 1.829-1.819s1.829 0.814 1.829 1.819z"></path>
</symbol>
<symbol id="icon-Combined-Shape" viewBox="0 0 32 32">
<path fill="#20b486" style="fill: var(--color1, #20b486)" d="M29.885 28.491c0.081 0.979-0.707 1.768-1.691 1.768h-10.127c-0.981 0-1.785-0.793-1.879-1.769-0.374-3.872-2.088-12.757-9.955-12.757-0.558 0-1.372-0.074-2.079-0.153-0.852-0.095-1.492-0.806-1.525-1.662l-0.408-10.546c-0.040-1.041 0.819-1.893 1.859-1.823 1.619 0.108 3.888 0.297 5.312 0.573 17.193 3.328 20.025 20.726 20.492 26.367z"></path>
</symbol>
<symbol id="icon-document-download" viewBox="0 0 32 32">
<path fill="none" opacity="0.4" stroke="#20b486" style="stroke: var(--color1, #20b486)" stroke-linejoin="round" stroke-linecap="round" stroke-miterlimit="4" stroke-width="1.92" d="M12.16 14.72v7.68l2.56-2.56"></path>
<path fill="none" opacity="0.4" stroke="#20b486" style="stroke: var(--color1, #20b486)" stroke-linejoin="round" stroke-linecap="round" stroke-miterlimit="4" stroke-width="1.92" d="M12.16 22.4l-2.56-2.56"></path>
<path fill="none" stroke="#20b486" style="stroke: var(--color1, #20b486)" stroke-linejoin="round" stroke-linecap="round" stroke-miterlimit="4" stroke-width="1.92" d="M28.8 13.44v6.4c0 6.4-2.56 8.96-8.96 8.96h-7.68c-6.4 0-8.96-2.56-8.96-8.96v-7.68c0-6.4 2.56-8.96 8.96-8.96h6.4"></path>
<path fill="none" stroke="#20b486" style="stroke: var(--color1, #20b486)" stroke-linejoin="round" stroke-linecap="round" stroke-miterlimit="4" stroke-width="1.92" d="M28.8 13.44h-5.12c-3.84 0-5.12-1.28-5.12-5.12v-5.12l10.24 10.24z"></path>
</symbol>
<symbol id="icon-graduate-green" viewBox="0 0 32 32">
<path fill="#f0faf7" style="fill: var(--color2, #f0faf7)" d="M4 0h24c2.209 0 4 1.791 4 4v24c0 2.209-1.791 4-4 4h-24c-2.209 0-4-1.791-4-4v-24c0-2.209 1.791-4 4-4z"></path>
<path fill="none" stroke="#20b486" style="stroke: var(--color1, #20b486)" stroke-linejoin="round" stroke-linecap="round" stroke-miterlimit="4" stroke-width="0.75" d="M5.688 13.25l10.313-5.5 10.313 5.5-10.313 5.5-10.313-5.5z"></path>
<path fill="none" stroke="#20b486" style="stroke: var(--color1, #20b486)" stroke-linejoin="round" stroke-linecap="round" stroke-miterlimit="4" stroke-width="0.75" d="M21.156 25.625v-9.625l-5.156-2.75"></path>
<path fill="none" stroke="#20b486" style="stroke: var(--color1, #20b486)" stroke-linejoin="round" stroke-linecap="round" stroke-miterlimit="4" stroke-width="0.75" d="M23.906 14.53v4.692c-0.001 0.146-0.049 0.288-0.137 0.404-0.576 0.773-3.016 3.592-7.769 3.592s-7.193-2.819-7.769-3.592c-0.089-0.116-0.137-0.258-0.137-0.404v-4.692"></path>
</symbol>
<symbol id="icon-graduate-red" viewBox="0 0 32 32">
<path fill="#ffeef0" style="fill: var(--color3, #ffeef0)" d="M4 0h24c2.209 0 4 1.791 4 4v24c0 2.209-1.791 4-4 4h-24c-2.209 0-4-1.791-4-4v-24c0-2.209 1.791-4 4-4z"></path>
<path fill="none" stroke="#ed4459" style="stroke: var(--color4, #ed4459)" stroke-linejoin="round" stroke-linecap="round" stroke-miterlimit="4" stroke-width="0.75" d="M5.688 13.25l10.313-5.5 10.313 5.5-10.313 5.5-10.313-5.5z"></path>
<path fill="none" stroke="#ed4459" style="stroke: var(--color4, #ed4459)" stroke-linejoin="round" stroke-linecap="round" stroke-miterlimit="4" stroke-width="0.75" d="M21.156 25.625v-9.625l-5.156-2.75"></path>
<path fill="none" stroke="#ed4459" style="stroke: var(--color4, #ed4459)" stroke-linejoin="round" stroke-linecap="round" stroke-miterlimit="4" stroke-width="0.75" d="M23.906 14.53v4.692c-0.001 0.146-0.049 0.288-0.137 0.404-0.576 0.773-3.016 3.592-7.769 3.592s-7.193-2.819-7.769-3.592c-0.089-0.116-0.137-0.258-0.137-0.404v-4.692"></path>
</symbol>
<symbol id="icon-camera" viewBox="0 0 32 32">
<path fill="#fffaf5" style="fill: var(--color5, #fffaf5)" d="M4 0h24c2.209 0 4 1.791 4 4v24c0 2.209-1.791 4-4 4h-24c-2.209 0-4-1.791-4-4v-24c0-2.209 1.791-4 4-4z"></path>
<path fill="none" stroke="#ffc27a" style="stroke: var(--color6, #ffc27a)" stroke-linejoin="round" stroke-linecap="round" stroke-miterlimit="4" stroke-width="0.75" d="M7.063 10.156h11c0.729 0 1.429 0.29 1.945 0.805s0.805 1.215 0.805 1.945v8.25c0 0.182-0.072 0.357-0.201 0.486s-0.304 0.201-0.486 0.201h-11c-0.729 0-1.429-0.29-1.945-0.805s-0.805-1.215-0.805-1.945v-8.25c0-0.182 0.072-0.357 0.201-0.486s0.304-0.201 0.486-0.201v0z"></path>
<path fill="none" stroke="#ffc27a" style="stroke: var(--color6, #ffc27a)" stroke-linejoin="round" stroke-linecap="round" stroke-miterlimit="4" stroke-width="0.75" d="M20.813 14.625l4.813-2.75v8.25l-4.813-2.75"></path>
</symbol>
<symbol id="icon-group" viewBox="0 0 32 32">
<path fill="#f0f7ff" style="fill: var(--color7, #f0f7ff)" d="M4 0h24c2.209 0 4 1.791 4 4v24c0 2.209-1.791 4-4 4h-24c-2.209 0-4-1.791-4-4v-24c0-2.209 1.791-4 4-4z"></path>
<path fill="none" stroke="#0075fd" style="stroke: var(--color8, #0075fd)" stroke-linejoin="round" stroke-linecap="round" stroke-miterlimit="4" stroke-width="0.75" d="M16 20.469c1.898 0 3.438-1.539 3.438-3.438s-1.539-3.438-3.438-3.438c-1.899 0-3.438 1.539-3.438 3.438s1.539 3.438 3.438 3.438z"></path>
<path fill="none" stroke="#0075fd" style="stroke: var(--color8, #0075fd)" stroke-linejoin="round" stroke-linecap="round" stroke-miterlimit="4" stroke-width="0.75" d="M21.844 14.969c0.801-0.001 1.591 0.184 2.307 0.543s1.339 0.879 1.818 1.52"></path>
<path fill="none" stroke="#0075fd" style="stroke: var(--color8, #0075fd)" stroke-linejoin="round" stroke-linecap="round" stroke-miterlimit="4" stroke-width="0.75" d="M6.031 17.031c0.479-0.641 1.102-1.162 1.818-1.52s1.506-0.544 2.307-0.543"></path>
<path fill="none" stroke="#0075fd" style="stroke: var(--color8, #0075fd)" stroke-linejoin="round" stroke-linecap="round" stroke-miterlimit="4" stroke-width="0.75" d="M11.050 23.563c0.453-0.927 1.157-1.709 2.032-2.255s1.886-0.836 2.918-0.836 2.043 0.29 2.918 0.836c0.875 0.547 1.579 1.328 2.032 2.255"></path>
<path fill="none" stroke="#0075fd" style="stroke: var(--color8, #0075fd)" stroke-linejoin="round" stroke-linecap="round" stroke-miterlimit="4" stroke-width="0.75" d="M10.156 14.969c-0.522 0.001-1.033-0.148-1.474-0.427s-0.793-0.678-1.016-1.15-0.306-0.998-0.241-1.516c0.065-0.518 0.276-1.007 0.609-1.409s0.773-0.702 1.269-0.863c0.496-0.162 1.028-0.178 1.534-0.049s0.964 0.4 1.321 0.781c0.357 0.38 0.599 0.855 0.697 1.367"></path>
<path fill="none" stroke="#0075fd" style="stroke: var(--color8, #0075fd)" stroke-linejoin="round" stroke-linecap="round" stroke-miterlimit="4" stroke-width="0.75" d="M19.145 11.703c0.098-0.513 0.34-0.987 0.697-1.367s0.816-0.651 1.321-0.781c0.506-0.13 1.038-0.113 1.534 0.049s0.936 0.461 1.269 0.863c0.332 0.402 0.544 0.891 0.609 1.409s-0.019 1.044-0.241 1.516-0.575 0.871-1.016 1.15c-0.441 0.279-0.952 0.427-1.474 0.427"></path>
</symbol>
<symbol id="icon-save-remove" viewBox="0 0 32 32">
<path fill="none" stroke="#20b486" style="stroke: var(--color1, #20b486)" stroke-linejoin="round" stroke-linecap="round" stroke-miterlimit="4" stroke-width="1.92" d="M21.12 12.147v14.541c0 1.856-1.331 2.637-2.957 1.741l-5.030-2.803c-0.538-0.294-1.408-0.294-1.946 0l-5.030 2.803c-1.626 0.896-2.957 0.115-2.957-1.741v-14.541c0-2.189 1.792-3.981 3.981-3.981h9.958c2.189 0 3.981 1.792 3.981 3.981z"></path>
<path fill="none" opacity="0.4" stroke="#20b486" style="stroke: var(--color1, #20b486)" stroke-linejoin="round" stroke-linecap="round" stroke-miterlimit="4" stroke-width="1.92" d="M10.355 17.805l3.61-3.61"></path>
<path fill="none" opacity="0.4" stroke="#20b486" style="stroke: var(--color1, #20b486)" stroke-linejoin="round" stroke-linecap="round" stroke-miterlimit="4" stroke-width="1.92" d="M13.965 17.805l-3.61-3.61"></path>
<path fill="none" stroke="#20b486" style="stroke: var(--color1, #20b486)" stroke-linejoin="round" stroke-linecap="round" stroke-miterlimit="4" stroke-width="1.92" d="M28.8 7.181v14.541c0 1.856-1.331 2.637-2.957 1.741l-4.723-2.637v-8.678c0-2.189-1.792-3.981-3.981-3.981h-6.259v-0.986c0-2.189 1.792-3.981 3.981-3.981h9.958c2.189 0 3.981 1.792 3.981 3.981z"></path>
</symbol>
<symbol id="icon-Screen-Shot-2023-03-12-at-1519-1" viewBox="0 0 32 32">
<path d="M0 3.572h32v24.856h-32v-24.856z"></path>
</symbol>
<symbol id="icon-search-normal" viewBox="0 0 32 32">
<path fill="none" stroke="#292d32" style="stroke: var(--color9, #292d32)" stroke-linejoin="round" stroke-linecap="round" stroke-miterlimit="4" stroke-width="1.863" d="M14.848 25.936c6.173 0 11.178-5.004 11.178-11.178s-5.004-11.178-11.178-11.178c-6.173 0-11.178 5.004-11.178 11.178s5.004 11.178 11.178 11.178z"></path>
<path fill="none" opacity="0.4" stroke="#292d32" style="stroke: var(--color9, #292d32)" stroke-linejoin="round" stroke-linecap="round" stroke-miterlimit="4" stroke-width="1.863" d="M24.696 26.793c0.658 1.987 2.161 2.186 3.316 0.447 1.056-1.59 0.36-2.894-1.552-2.894-1.416-0.012-2.211 1.093-1.764 2.447z"></path>
</symbol>
<symbol id="icon-quote" viewBox="0 0 32 32">
<path fill="#20b486" style="fill: var(--color1, #20b486); stroke: var(--color10, #6f8191)" stroke="#6f8191" stroke-linejoin="miter" stroke-linecap="butt" stroke-miterlimit="4" stroke-width="0.7442" d="M10.993 17.465l0.108-0.602-0.584 0.181c-0.489 0.152-0.988 0.25-1.508 0.25h-3.537c-2.736 0-4.934-2.126-4.934-4.705v-3.385c0-2.579 2.198-4.705 4.934-4.705h3.537c2.736 0 4.934 2.126 4.934 4.705v6.769c0 6.31-5.372 11.474-12.008 11.474-0.788 0-1.397-0.606-1.397-1.32s0.609-1.32 1.397-1.32c4.541 0 8.313-3.173 9.059-7.343zM28.679 17.465l0.108-0.602-0.584 0.181c-0.489 0.152-0.988 0.25-1.508 0.25h-3.537c-2.736 0-4.934-2.126-4.934-4.705v-3.385c0-2.579 2.198-4.705 4.934-4.705h3.537c2.736 0 4.934 2.126 4.934 4.705v6.769c0 6.31-5.372 11.474-12.008 11.474-0.788 0-1.396-0.606-1.396-1.32s0.609-1.32 1.396-1.32c4.541 0 8.313-3.173 9.059-7.343z"></path>
</symbol>
<symbol id="icon-menu" viewBox="0 0 32 32">
<path fill="none" stroke="#06241b" style="stroke: var(--color1, #06241b)" stroke-linejoin="miter" stroke-linecap="round" stroke-miterlimit="4" stroke-width="2" d="M4 9.333h24"></path>
<path fill="none" opacity="0.34" stroke="#06241b" style="stroke: var(--color1, #06241b)" stroke-linejoin="miter" stroke-linecap="round" stroke-miterlimit="4" stroke-width="2" d="M4 16h24"></path>
<path fill="none" stroke="#06241b" style="stroke: var(--color1, #06241b)" stroke-linejoin="miter" stroke-linecap="round" stroke-miterlimit="4" stroke-width="2" d="M4 22.667h24"></path>
</symbol>
<symbol id="icon-search-zoom-out" viewBox="0 0 32 32">
<path fill="none" opacity="0.4" stroke="#292d32" style="stroke: var(--color2, #292d32)" stroke-linejoin="round" stroke-linecap="round" stroke-miterlimit="4" stroke-width="2" d="M12 15.6h6.667"></path>
<path fill="none" stroke="#292d32" style="stroke: var(--color2, #292d32)" stroke-linejoin="round" stroke-linecap="round" stroke-miterlimit="4" stroke-width="2" d="M15.333 28c6.996 0 12.667-5.671 12.667-12.667s-5.671-12.667-12.667-12.667c-6.996 0-12.667 5.671-12.667 12.667s5.671 12.667 12.667 12.667z"></path>
<path fill="none" opacity="0.4" stroke="#292d32" style="stroke: var(--color2, #292d32)" stroke-linejoin="round" stroke-linecap="round" stroke-miterlimit="4" stroke-width="2" d="M29.333 29.333l-2.667-2.667"></path>
</symbol>
<symbol id="icon-home-2" viewBox="0 0 32 32">
<path fill="none" stroke="#292d32" style="stroke: var(--color1, #292d32)" stroke-linejoin="round" stroke-linecap="round" stroke-miterlimit="4" stroke-width="2" d="M12.027 3.787l-7.187 5.6c-1.2 0.933-2.173 2.92-2.173 4.427v9.88c0 3.093 2.52 5.627 5.613 5.627h15.44c3.093 0 5.613-2.533 5.613-5.613v-9.707c0-1.613-1.080-3.68-2.4-4.6l-8.24-5.773c-1.867-1.307-4.867-1.24-6.667 0.16z"></path>
<path fill="none" opacity="0.34" stroke="#292d32" style="stroke: var(--color1, #292d32)" stroke-linejoin="round" stroke-linecap="round" stroke-miterlimit="4" stroke-width="2" d="M16 23.987v-4"></path>
</symbol>
<symbol id="icon-right-icon" viewBox="0 0 32 32">
<path stroke-linejoin="round" stroke-linecap="round" stroke-miterlimit="4" stroke-width="2" d="M13.333 22.667l5.333-6.667-5.333-6.667"></path>
</symbol>
<symbol id='icon-arrow-down' viewBox="0 0 25 24" fill="none" xmlns="http://www.w3.org/2000/svg">
<path d="M4.57998 8.91003L11.1 15.43C11.87 16.2 13.13 16.2 13.9 15.43L20.42 8.91003" stroke="#292D32" stroke-width="1.5" stroke-miterlimit="10" stroke-linecap="round" stroke-linejoin="round"/>
</symbol>
<symbol id="icon-client_signup" viewBox="0 0 32 32">
<path d="M0 0h32v32h-32v-32z"></path>
</symbol>
<symbol id="icon-employee_signup" viewBox="0 0 32 32">
<path d="M0 0h32v32h-32v-32z"></path>
</symbol>
<symbol id="icon-radioButton" viewBox="0 0 32 32">
<path stroke-linejoin="miter" stroke-linecap="butt" stroke-miterlimit="4" stroke-width="2.6667" d="M16 4c6.627 0 12 5.373 12 12s-5.373 12-12 12c-6.627 0-12-5.373-12-12s5.373-12 12-12z"></path>
</symbol>
<symbol width="25" height="25" id="icon-google"  viewBox="0 0 25 25" fill="none" xmlns="http://www.w3.org/2000/svg">
<path d="M23.001 12.7331C23.001 11.8698 22.9296 11.2398 22.7748 10.5864H12.7153V14.483H18.62C18.501 15.4514 17.8582 16.9097 16.4296 17.8897L16.4096 18.0202L19.5902 20.4349L19.8106 20.4564C21.8343 18.6247 23.001 15.9297 23.001 12.7331Z" fill="#4285F4"/>
<path d="M12.714 23.0001C15.6068 23.0001 18.0353 22.0667 19.8092 20.4567L16.4282 17.89C15.5235 18.5083 14.3092 18.94 12.714 18.94C9.88069 18.94 7.47596 17.1083 6.61874 14.5767L6.49309 14.5871L3.18583 17.0955L3.14258 17.2133C4.90446 20.6433 8.5235 23.0001 12.714 23.0001Z" fill="#34A853"/>
<path d="M6.62046 14.5767C6.39428 13.9234 6.26337 13.2233 6.26337 12.5C6.26337 11.7767 6.39428 11.0767 6.60856 10.4234L6.60257 10.2842L3.25386 7.7356L3.14429 7.78667C2.41814 9.21002 2.00146 10.8084 2.00146 12.5C2.00146 14.1917 2.41814 15.79 3.14429 17.2133L6.62046 14.5767Z" fill="#FBBC05"/>
<path d="M12.7141 6.05997C14.7259 6.05997 16.083 6.91163 16.8569 7.62335L19.8807 4.73C18.0236 3.03834 15.6069 2 12.7141 2C8.52353 2 4.90447 4.35665 3.14258 7.78662L6.60686 10.4233C7.47598 7.89166 9.88073 6.05997 12.7141 6.05997Z" fill="#EB4335"/>
</symbol>
<symbol id="icon-right-arrow" width="24" height="24" viewBox="0 0 24 24" fill="none" xmlns="http://www.w3.org/2000/svg">
<path d="M10 17L14 12L10 7" stroke="#3D4249" stroke-width="1.5" stroke-linecap="round" stroke-linejoin="round"/>
</symbol>
<symbol id="icon-eye" width="28" height="24" viewBox="0 0 28 24" fill="none" xmlns="http://www.w3.org/2000/svg">
<path opacity="0.4" d="M17.5799 11.9999C17.5799 13.9799 15.9799 15.5799 13.9999 15.5799C12.0199 15.5799 10.4199 13.9799 10.4199 11.9999C10.4199 10.0199 12.0199 8.41992 13.9999 8.41992C15.9799 8.41992 17.5799 10.0199 17.5799 11.9999Z" stroke="#06241B" stroke-width="1.5" stroke-linecap="round" stroke-linejoin="round"/>
<path d="M14.0001 20.27C17.5301 20.27 20.8201 18.19 23.1101 14.59C24.0101 13.18 24.0101 10.81 23.1101 9.39997C20.8201 5.79997 17.5301 3.71997 14.0001 3.71997C10.4701 3.71997 7.18009 5.79997 4.89009 9.39997C3.99009 10.81 3.99009 13.18 4.89009 14.59C7.18009 18.19 10.4701 20.27 14.0001 20.27Z" stroke="white" stroke-width="1.5" stroke-linecap="round" stroke-linejoin="round"/>
</symbol>
<symbol id="black-box" width="28" height="24" viewBox="0 0 28 24" fill="none" xmlns="http://www.w3.org/2000/svg">
<rect width="28" height="24" rx="2" fill="#06241B"/>
<g opacity="0.4">
<path d="M11.3203 6.50043L13.8803 3.94043L16.4403 6.50043" stroke="white" stroke-width="1.5" stroke-miterlimit="10" stroke-linecap="round" stroke-linejoin="round"/>
<path d="M13.8809 14.1798V4.00977" stroke="white" stroke-width="1.5" stroke-miterlimit="10" stroke-linecap="round" stroke-linejoin="round"/>
</g>
<path d="M6 12C6 16.42 9 20 14 20C19 20 22 16.42 22 12" stroke="white" stroke-width="1.5" stroke-miterlimit="10" stroke-linecap="round" stroke-linejoin="round"/>
</symbol>
<symbol id="edit-icon" width="24" height="24" viewBox="0 0 24 24" fill="none" xmlns="http://www.w3.org/2000/svg">
<path opacity="0.4" d="M11 2H9C4 2 2 4 2 9V15C2 20 4 22 9 22H15C20 22 22 20 22 15V13" stroke="#06241B" stroke-width="1.5" stroke-linecap="round" stroke-linejoin="round"/>
<path d="M16.0399 3.02001L8.15988 10.9C7.85988 11.2 7.55988 11.79 7.49988 12.22L7.06988 15.23C6.90988 16.32 7.67988 17.08 8.76988 16.93L11.7799 16.5C12.1999 16.44 12.7899 16.14 13.0999 15.84L20.9799 7.96001C22.3399 6.60001 22.9799 5.02001 20.9799 3.02001C18.9799 1.02001 17.3999 1.66001 16.0399 3.02001Z" stroke="#06241B" stroke-width="1.5" stroke-miterlimit="10" stroke-linecap="round" stroke-linejoin="round"/>
<path opacity="0.4" d="M14.9099 4.1499C15.5799 6.5399 17.4499 8.4099 19.8499 9.0899" stroke="#06241B" stroke-width="1.5" stroke-miterlimit="10" stroke-linecap="round" stroke-linejoin="round"/>
</symbol>
<symbol id="location-icon" viewBox="0 0 24 24" fill="none" xmlns="http://www.w3.org/2000/svg">
<path opacity="0.4" d="M11.9999 13.4299C13.723 13.4299 15.1199 12.0331 15.1199 10.3099C15.1199 8.58681 13.723 7.18994 11.9999 7.18994C10.2768 7.18994 8.87988 8.58681 8.87988 10.3099C8.87988 12.0331 10.2768 13.4299 11.9999 13.4299Z" stroke="#292D32" stroke-width="1.5"/>
<path d="M3.61995 8.49C5.58995 -0.169998 18.42 -0.159997 20.38 8.5C21.53 13.58 18.37 17.88 15.6 20.54C13.59 22.48 10.41 22.48 8.38995 20.54C5.62995 17.88 2.46995 13.57 3.61995 8.49Z" stroke="#292D32" stroke-width="1.5"/>
</symbol>
<symbol id="add-video" width="24" height="24" viewBox="0 0 24 24" fill="none" xmlns="http://www.w3.org/2000/svg">
<g opacity="0.4">
<path d="M8 12H16" stroke="#06241B" stroke-width="1.5" stroke-linecap="round" stroke-linejoin="round"/>
<path d="M12 16V8" stroke="#06241B" stroke-width="1.5" stroke-linecap="round" stroke-linejoin="round"/>
</g>
<path d="M9 22H15C20 22 22 20 22 15V9C22 4 20 2 15 2H9C4 2 2 4 2 9V15C2 20 4 22 9 22Z" stroke="#06241B" stroke-width="1.5" stroke-linecap="round" stroke-linejoin="round"/>
</symbol>
<symbol id="location-icon2" width="24" height="24" viewBox="0 0 24 24" fill="none" xmlns="http://www.w3.org/2000/svg">
<g opacity="0.4">
<path d="M9.25 11H14.75" stroke="#20B486" stroke-width="1.5" stroke-linecap="round"/>
<path d="M12 13.75V8.25" stroke="#20B486" stroke-width="1.5" stroke-linecap="round"/>
</g>
<path d="M3.6202 8.49C5.5902 -0.169998 18.4202 -0.159997 20.3802 8.5C21.5302 13.58 18.3702 17.88 15.6002 20.54C13.5902 22.48 10.4102 22.48 8.3902 20.54C5.6302 17.88 2.4702 13.57 3.6202 8.49Z" stroke="#20B486" stroke-width="1.5"/>
</symbol>
<symbol id="clock-icon" width="25" height="24" viewBox="0 0 25 24" fill="none" xmlns="http://www.w3.org/2000/svg">
<path d="M21.585 13.25C21.585 18.08 17.665 22 12.835 22C8.00496 22 4.08496 18.08 4.08496 13.25C4.08496 8.42 8.00496 4.5 12.835 4.5C17.665 4.5 21.585 8.42 21.585 13.25Z" stroke="#20B486" stroke-width="1.5" stroke-linecap="round" stroke-linejoin="round"/>
<path opacity="0.4" d="M12.835 8V13" stroke="#20B486" stroke-width="1.5" stroke-linecap="round" stroke-linejoin="round"/>
<path opacity="0.4" d="M9.83496 2H15.835" stroke="#20B486" stroke-width="1.5" stroke-miterlimit="10" stroke-linecap="round" stroke-linejoin="round"/>
</symbol>
<symbol id="save-icon" width="24" height="24" viewBox="0 0 24 24" fill="none" xmlns="http://www.w3.org/2000/svg">
<path d="M16 8.98987V20.3499C16 21.7999 14.96 22.4099 13.69 21.7099L9.76001 19.5199C9.34001 19.2899 8.65999 19.2899 8.23999 19.5199L4.31 21.7099C3.04 22.4099 2 21.7999 2 20.3499V8.98987C2 7.27987 3.39999 5.87988 5.10999 5.87988H12.89C14.6 5.87988 16 7.27987 16 8.98987Z" stroke="#06241B" stroke-width="1.5" stroke-linecap="round" stroke-linejoin="round"/>
<path opacity="0.4" d="M22 5.10999V16.47C22 17.92 20.96 18.53 19.69 17.83L16 15.77V8.98999C16 7.27999 14.6 5.88 12.89 5.88H8V5.10999C8 3.39999 9.39999 2 11.11 2H18.89C20.6 2 22 3.39999 22 5.10999Z" stroke="#6F8191" stroke-width="1.5" stroke-linecap="round" stroke-linejoin="round"/>
<path opacity="0.4" d="M7 12H11" stroke="#6F8191" stroke-width="1.5" stroke-linecap="round" stroke-linejoin="round"/>
</symbol>
<symbol id="filter-icon" width="16" height="16" viewBox="0 0 16 16" fill="none" xmlns="http://www.w3.org/2000/svg">
<path opacity="0.4" d="M9.54655 12.7134C9.54655 13.1201 9.27986 13.6534 8.93986 13.8601L7.99988 14.4668C7.12654 15.0068 5.91321 14.4001 5.91321 13.3201V9.75342C5.91321 9.28008 5.64654 8.67342 5.37321 8.34009L2.81319 5.64675C2.47319 5.30675 2.20654 4.70676 2.20654 4.30009V2.75342C2.20654 1.94675 2.81322 1.34009 3.55322 1.34009H12.4465C13.1865 1.34009 13.7932 1.94675 13.7932 2.68675V4.16675C13.7932 4.70675 13.4532 5.38009 13.1199 5.71342" stroke="#292D32" stroke-width="1.5" stroke-miterlimit="10" stroke-linecap="round" stroke-linejoin="round"/>
<path d="M10.7134 11.0132C11.8916 11.0132 12.8468 10.0581 12.8468 8.87992C12.8468 7.70172 11.8916 6.74658 10.7134 6.74658C9.53521 6.74658 8.58008 7.70172 8.58008 8.87992C8.58008 10.0581 9.53521 11.0132 10.7134 11.0132Z" stroke="#292D32" stroke-width="1.5" stroke-linecap="round" stroke-linejoin="round"/>
<path d="M13.2467 11.4132L12.5801 10.7466" stroke="#292D32" stroke-width="1.5" stroke-linecap="round" stroke-linejoin="round"/>
</symbol>
<symbol id="icon-x" viewBox="0 0 32 32">
<path d="M30 24.398l-8.406-8.398 8.406-8.398-5.602-5.602-8.398 8.402-8.402-8.402-5.598 5.602 8.398 8.398-8.398 8.398 5.598 5.602 8.402-8.402 8.398 8.402z"></path>
</symbol>


</defs>
</svg>
