<svg width="43" height="33" viewBox="0 0 43 33" fill="none" xmlns="http://www.w3.org/2000/svg">
<path d="M14.7714 18.469L14.9161 17.6603L14.1314 17.9033C13.474 18.1069 12.8038 18.2399 12.1049 18.2399H7.3518C3.67549 18.2399 0.722168 15.383 0.722168 11.9179V7.36988C0.722168 3.90476 3.67549 1.04785 7.3518 1.04785H12.1049C15.7812 1.04785 18.7345 3.90476 18.7345 7.36988V16.4659C18.7345 24.9455 11.5156 31.884 2.59871 31.884C1.54025 31.884 0.722168 31.0702 0.722168 30.11C0.722168 29.1498 1.54025 28.336 2.59871 28.336C8.7006 28.336 13.769 24.072 14.7714 18.469ZM38.5369 18.469L38.6816 17.6603L37.8968 17.9033C37.2394 18.1069 36.5693 18.2399 35.8703 18.2399H31.1172C27.4409 18.2399 24.4876 15.383 24.4876 11.9179V7.36988C24.4876 3.90476 27.4409 1.04785 31.1172 1.04785H35.8703C39.5466 1.04785 42.4999 3.90476 42.4999 7.36988V16.4659C42.4999 24.9455 35.281 31.884 26.3641 31.884C25.3057 31.884 24.4876 31.0702 24.4876 30.11C24.4876 29.1498 25.3057 28.336 26.3641 28.336C32.466 28.336 37.5345 24.072 38.5369 18.469Z" fill="#20B486" stroke="#6F8191"/>
</svg>
